<?xml version="1.0" encoding="UTF-8" standalone="no"?>
<svg
   xmlns:dc="http://purl.org/dc/elements/1.1/"
   xmlns:cc="http://creativecommons.org/ns#"
   xmlns:rdf="http://www.w3.org/1999/02/22-rdf-syntax-ns#"
   xmlns:svg="http://www.w3.org/2000/svg"
   xmlns="http://www.w3.org/2000/svg"
   id="SVGRoot"
   version="1.1"
   viewBox="0 0 55 55"
   height="55px"
   width="55px">
  <defs
     id="defs2390" />
  <metadata
     id="metadata2393">
    <rdf:RDF>
      <cc:Work
         rdf:about="">
        <dc:format>image/svg+xml</dc:format>
        <dc:type
           rdf:resource="http://purl.org/dc/dcmitype/StillImage" />
        <dc:title></dc:title>
      </cc:Work>
    </rdf:RDF>
  </metadata>
  <g
     id="layer1">
    <g
       transform="translate(-2.6835565e-7,0.37979448)"
       id="g3395">
      <g
         style="fill:none;fill-opacity:1;stroke:#000234;stroke-width:7.13517809;stroke-miterlimit:4;stroke-dasharray:none;stroke-opacity:1"
         transform="matrix(0.13717153,-0.03396708,0.04376256,0.19136229,-55.512542,1.4830289)"
         id="print">
        <title
           id="title1135">print</title>
        <g
           transform="translate(390.74841,88.61194)"
           style="fill:none;fill-opacity:1;stroke:#000234;stroke-width:7.13517809;stroke-miterlimit:4;stroke-dasharray:none;stroke-opacity:1"
           id="g1145">
          <g
             style="fill:none;fill-opacity:1;stroke:#000234;stroke-width:7.13517809;stroke-miterlimit:4;stroke-dasharray:none;stroke-opacity:1"
             id="g1143">
            <path
               style="fill:none;fill-opacity:1;stroke:#000234;stroke-width:7.13517809;stroke-linecap:round;stroke-miterlimit:4;stroke-dasharray:none;stroke-opacity:1"
               d="M 22.855,81.087 C 9.543,107.082 4.61,137.596 10.832,168.451"
               stroke-miterlimit="10"
               id="path1137" />
            <path
               style="fill:none;fill-opacity:1;stroke:#000234;stroke-width:7.13517809;stroke-linecap:round;stroke-miterlimit:4;stroke-dasharray:none;stroke-opacity:1"
               d="M 200.875,21.835 C 175.332,9.297 145.604,4.775 115.554,10.834 81.418,17.716 52.961,37.021 33.936,63.091"
               stroke-miterlimit="10"
               id="path1139" />
            <path
               style="fill:none;fill-opacity:1;stroke:#000234;stroke-width:7.13517809;stroke-linecap:round;stroke-miterlimit:4;stroke-dasharray:none;stroke-opacity:1"
               d="M 273.164,115.555 C 266.104,80.542 245.975,51.499 218.879,32.485"
               stroke-miterlimit="10"
               id="path1141" />
          </g>
        </g>
        <g
           transform="translate(390.74841,88.61194)"
           style="fill:none;fill-opacity:1;stroke:#000234;stroke-width:7.13517809;stroke-miterlimit:4;stroke-dasharray:none;stroke-opacity:1"
           id="g1153">
          <g
             style="fill:none;fill-opacity:1;stroke:#000234;stroke-width:7.13517809;stroke-miterlimit:4;stroke-dasharray:none;stroke-opacity:1"
             id="g1151">
            <path
               style="fill:none;fill-opacity:1;stroke:#000234;stroke-width:7.13517809;stroke-linecap:round;stroke-miterlimit:4;stroke-dasharray:none;stroke-opacity:1"
               d="m 275.877,144.695 c 0.184,-9.594 -0.666,-19.357 -2.641,-29.154"
               stroke-miterlimit="10"
               id="path1147" />
            <path
               style="fill:none;fill-opacity:1;stroke:#000234;stroke-width:7.13517809;stroke-linecap:round;stroke-miterlimit:4;stroke-dasharray:none;stroke-opacity:1"
               d="m 10.904,168.438 c 0.388,1.921 0.814,3.824 1.279,5.709"
               stroke-miterlimit="10"
               id="path1149" />
          </g>
        </g>
        <path
           style="fill:none;fill-opacity:1;stroke:#000234;stroke-width:7.13517809;stroke-linecap:round;stroke-miterlimit:4;stroke-dasharray:none;stroke-opacity:1"
           d="m 498.20241,359.90194 c 29.977,-34.119 44.249,-81.34 34.579,-129.294"
           stroke-miterlimit="10"
           id="path1155" />
        <path
           style="fill:none;fill-opacity:1;stroke:#000234;stroke-width:7.13517809;stroke-linecap:round;stroke-miterlimit:4;stroke-dasharray:none;stroke-opacity:1"
           d="m 509.92441,308.94994 c -6.555,16.798 -16.443,32.131 -29.02,45.026"
           stroke-miterlimit="10"
           id="path1157" />
        <path
           style="fill:none;fill-opacity:1;stroke:#000234;stroke-width:7.13517809;stroke-linecap:round;stroke-miterlimit:4;stroke-dasharray:none;stroke-opacity:1"
           d="m 516.93541,363.50794 c 29.051,-37.175 42.302,-86.333 32.245,-136.205 l 0.052,-0.017 c -1.836,-9.104 -10.703,-14.996 -19.807,-13.16 -9.103,1.836 -14.994,10.703 -13.159,19.808 l 0.119,-0.02 c 3.746,18.581 3.45,37.04 -0.284,54.465"
           stroke-miterlimit="10"
           id="path1159" />
        <path
           style="fill:none;fill-opacity:1;stroke:#000234;stroke-width:7.13517809;stroke-linecap:round;stroke-miterlimit:4;stroke-dasharray:none;stroke-opacity:1"
           d="m 501.25841,244.75594 c 5.245,38.701 -9.215,76.082 -36.162,101.293"
           stroke-miterlimit="10"
           id="path1161" />
        <path
           style="fill:none;fill-opacity:1;stroke:#000234;stroke-width:7.13517809;stroke-linecap:round;stroke-miterlimit:4;stroke-dasharray:none;stroke-opacity:1"
           d="m 569.24241,260.04594 c -0.033,-11.89 -1.227,-23.95 -3.666,-36.049 l 0.037,-0.014 c -3.659,-18.152 -21.34,-29.901 -39.492,-26.24 -13.559,2.734 -23.546,13.292 -26.203,26.027"
           stroke-miterlimit="10"
           id="path1163" />
        <path
           style="fill:none;fill-opacity:1;stroke:#000234;stroke-width:7.13517809;stroke-linecap:round;stroke-miterlimit:4;stroke-dasharray:none;stroke-opacity:1"
           d="m 537.02141,364.35994 c 16.744,-24.469 27.606,-52.939 31.045,-83.098"
           stroke-miterlimit="10"
           id="path1165" />
        <path
           style="fill:none;fill-opacity:1;stroke:#000234;stroke-width:7.13517809;stroke-linecap:round;stroke-miterlimit:4;stroke-dasharray:none;stroke-opacity:1"
           d="m 536.67841,180.50994 c -4.529,-0.353 -9.184,-0.093 -13.859,0.85 -27.201,5.485 -44.805,31.979 -39.32,59.182 l 0.094,-0.016 c 7.418,36.792 -6.293,72.938 -32.779,95.876"
           stroke-miterlimit="10"
           id="path1167" />
        <path
           style="fill:none;fill-opacity:1;stroke:#000234;stroke-width:7.13517809;stroke-linecap:round;stroke-miterlimit:4;stroke-dasharray:none;stroke-opacity:1"
           d="m 558.35641,361.93594 c 24.108,-41.098 33.776,-90.867 23.617,-141.246 l 0.024,-0.01 c -3.023,-14.988 -12.424,-27.063 -24.807,-33.967"
           stroke-miterlimit="10"
           id="path1169" />
        <path
           style="fill:none;fill-opacity:1;stroke:#000234;stroke-width:7.13517809;stroke-linecap:round;stroke-miterlimit:4;stroke-dasharray:none;stroke-opacity:1"
           d="m 463.20541,290.60394 c -5.228,13.461 -13.877,25.422 -25.095,34.611"
           stroke-miterlimit="10"
           id="path1171" />
        <path
           style="fill:none;fill-opacity:1;stroke:#000234;stroke-width:7.13517809;stroke-linecap:round;stroke-miterlimit:4;stroke-dasharray:none;stroke-opacity:1"
           d="m 599.83241,295.67194 c 4.162,-25.266 3.9,-51.697 -1.461,-78.287 l 0.01,-0.007 c -7.31,-36.25 -42.617,-59.709 -78.865,-52.4 -36.25,7.31 -59.71,42.618 -52.4,78.869 l 0.078,-0.016 c 1.736,8.61 2.084,17.178 1.197,25.47"
           stroke-miterlimit="10"
           id="path1173" />
        <path
           style="fill:none;fill-opacity:1;stroke:#000234;stroke-width:7.13517809;stroke-linecap:round;stroke-miterlimit:4;stroke-dasharray:none;stroke-opacity:1"
           d="m 580.75441,355.52094 c 6.068,-12.456 10.967,-25.52 14.582,-39.021"
           stroke-miterlimit="10"
           id="path1175" />
        <path
           style="fill:none;fill-opacity:1;stroke:#000234;stroke-width:7.13517809;stroke-linecap:round;stroke-miterlimit:4;stroke-dasharray:none;stroke-opacity:1"
           d="m 600.41441,181.36994 c 6.883,9.447 11.887,20.496 14.35,32.705 l 0.005,0.004 c 9.095,45.104 4.563,89.789 -10.744,129.806"
           stroke-miterlimit="10"
           id="path1177" />
        <path
           style="fill:none;fill-opacity:1;stroke:#000234;stroke-width:7.13517809;stroke-linecap:round;stroke-miterlimit:4;stroke-dasharray:none;stroke-opacity:1"
           d="m 497.81841,154.56394 c 5.76,-2.64 11.913,-4.663 18.393,-5.969 25.609,-5.163 50.842,1.962 69.588,17.315"
           stroke-miterlimit="10"
           id="path1179" />
        <path
           style="fill:none;fill-opacity:1;stroke:#000234;stroke-width:7.13517809;stroke-linecap:round;stroke-miterlimit:4;stroke-dasharray:none;stroke-opacity:1"
           d="m 427.02341,312.66194 c 18.902,-15.185 28.896,-40.118 23.771,-65.524 l -0.063,0.014 c -6.366,-31.567 5.94,-62.562 29.315,-81.544"
           stroke-miterlimit="10"
           id="path1181" />
        <path
           style="fill:none;fill-opacity:1;stroke:#000234;stroke-width:7.13517809;stroke-linecap:round;stroke-miterlimit:4;stroke-dasharray:none;stroke-opacity:1"
           d="m 432.43241,234.58794 c 0.215,5.25 0.844,10.552 1.916,15.867 l 0.051,-0.013 c 3.752,18.607 -3.295,36.881 -16.821,48.343"
           stroke-miterlimit="10"
           id="path1183" />
        <path
           style="fill:none;fill-opacity:1;stroke:#000234;stroke-width:7.13517809;stroke-linecap:round;stroke-miterlimit:4;stroke-dasharray:none;stroke-opacity:1"
           d="m 633.43841,223.76794 c -0.642,-4.326 -1.399,-8.658 -2.272,-12.994 l -0.02,-0.001 c -10.958,-54.348 -63.892,-89.518 -118.238,-78.561 -41.765,8.422 -72.207,41.635 -79.088,81.229"
           stroke-miterlimit="10"
           id="path1185" />
        <path
           style="fill:none;fill-opacity:1;stroke:#000234;stroke-width:7.13517809;stroke-linecap:round;stroke-miterlimit:4;stroke-dasharray:none;stroke-opacity:1"
           d="m 627.73141,324.86994 c 6.826,-25.603 9.664,-52.564 7.931,-80.029"
           stroke-miterlimit="10"
           id="path1187" />
        <path
           style="fill:none;fill-opacity:1;stroke:#000234;stroke-width:7.13517809;stroke-linecap:round;stroke-miterlimit:4;stroke-dasharray:none;stroke-opacity:1"
           d="m 548.43641,114.54294 c -12.592,-1.701 -25.675,-1.366 -38.83,1.287 -63.397,12.782 -104.426,74.532 -91.643,137.928 l 0.039,-0.01 c 2.219,11 -1.225,21.823 -8.313,29.47"
           stroke-miterlimit="10"
           id="path1189" />
        <path
           style="fill:none;fill-opacity:1;stroke:#000234;stroke-width:7.13517809;stroke-linecap:round;stroke-miterlimit:4;stroke-dasharray:none;stroke-opacity:1"
           d="m 650.85241,293.50794 c 3.479,-27.945 2.584,-56.916 -3.289,-86.041 l -0.033,0.002 c -8.693,-43.112 -40.031,-75.878 -79.129,-88.413"
           stroke-miterlimit="10"
           id="path1191" />
      </g>
      <g
         id="g3333"
         transform="matrix(0.13606275,-0.03445926,0.04340882,0.19413511,-54.993453,0.72625147)"
         style="fill:none;fill-opacity:1;stroke:#000234;stroke-width:7.13517809;stroke-miterlimit:4;stroke-dasharray:none;stroke-opacity:1">
        <title
           id="title3275">print</title>
        <g
           id="g3285"
           style="fill:none;fill-opacity:1;stroke:#000234;stroke-width:7.13517809;stroke-miterlimit:4;stroke-dasharray:none;stroke-opacity:1"
           transform="translate(390.74841,88.61194)">
          <g
             id="g3283"
             style="fill:none;fill-opacity:1;stroke:#000234;stroke-width:7.13517809;stroke-miterlimit:4;stroke-dasharray:none;stroke-opacity:1">
            <path
               id="path3277"
               stroke-miterlimit="10"
               d="M 22.855,81.087 C 9.543,107.082 4.61,137.596 10.832,168.451"
               style="fill:none;fill-opacity:1;stroke:#000234;stroke-width:7.13517809;stroke-linecap:round;stroke-miterlimit:4;stroke-dasharray:none;stroke-opacity:1" />
            <path
               id="path3279"
               stroke-miterlimit="10"
               d="M 200.875,21.835 C 175.332,9.297 145.604,4.775 115.554,10.834 81.418,17.716 52.961,37.021 33.936,63.091"
               style="fill:none;fill-opacity:1;stroke:#000234;stroke-width:7.13517809;stroke-linecap:round;stroke-miterlimit:4;stroke-dasharray:none;stroke-opacity:1" />
            <path
               id="path3281"
               stroke-miterlimit="10"
               d="M 273.164,115.555 C 266.104,80.542 245.975,51.499 218.879,32.485"
               style="fill:none;fill-opacity:1;stroke:#000234;stroke-width:7.13517809;stroke-linecap:round;stroke-miterlimit:4;stroke-dasharray:none;stroke-opacity:1" />
          </g>
        </g>
        <g
           id="g3293"
           style="fill:none;fill-opacity:1;stroke:#000234;stroke-width:7.13517809;stroke-miterlimit:4;stroke-dasharray:none;stroke-opacity:1"
           transform="translate(390.74841,88.61194)">
          <g
             id="g3291"
             style="fill:none;fill-opacity:1;stroke:#000234;stroke-width:7.13517809;stroke-miterlimit:4;stroke-dasharray:none;stroke-opacity:1">
            <path
               id="path3287"
               stroke-miterlimit="10"
               d="m 275.877,144.695 c 0.184,-9.594 -0.666,-19.357 -2.641,-29.154"
               style="fill:none;fill-opacity:1;stroke:#000234;stroke-width:7.13517809;stroke-linecap:round;stroke-miterlimit:4;stroke-dasharray:none;stroke-opacity:1" />
            <path
               id="path3289"
               stroke-miterlimit="10"
               d="m 10.904,168.438 c 0.388,1.921 0.814,3.824 1.279,5.709"
               style="fill:none;fill-opacity:1;stroke:#000234;stroke-width:7.13517809;stroke-linecap:round;stroke-miterlimit:4;stroke-dasharray:none;stroke-opacity:1" />
          </g>
        </g>
        <path
           id="path3295"
           stroke-miterlimit="10"
           d="m 498.20241,359.90194 c 29.977,-34.119 44.249,-81.34 34.579,-129.294"
           style="fill:none;fill-opacity:1;stroke:#000234;stroke-width:7.13517809;stroke-linecap:round;stroke-miterlimit:4;stroke-dasharray:none;stroke-opacity:1" />
        <path
           id="path3297"
           stroke-miterlimit="10"
           d="m 509.92441,308.94994 c -6.555,16.798 -16.443,32.131 -29.02,45.026"
           style="fill:none;fill-opacity:1;stroke:#000234;stroke-width:7.13517809;stroke-linecap:round;stroke-miterlimit:4;stroke-dasharray:none;stroke-opacity:1" />
        <path
           id="path3299"
           stroke-miterlimit="10"
           d="m 516.93541,363.50794 c 29.051,-37.175 42.302,-86.333 32.245,-136.205 l 0.052,-0.017 c -1.836,-9.104 -10.703,-14.996 -19.807,-13.16 -9.103,1.836 -14.994,10.703 -13.159,19.808 l 0.119,-0.02 c 3.746,18.581 3.45,37.04 -0.284,54.465"
           style="fill:none;fill-opacity:1;stroke:#000234;stroke-width:7.13517809;stroke-linecap:round;stroke-miterlimit:4;stroke-dasharray:none;stroke-opacity:1" />
        <path
           id="path3301"
           stroke-miterlimit="10"
           d="m 501.25841,244.75594 c 5.245,38.701 -9.215,76.082 -36.162,101.293"
           style="fill:none;fill-opacity:1;stroke:#000234;stroke-width:7.13517809;stroke-linecap:round;stroke-miterlimit:4;stroke-dasharray:none;stroke-opacity:1" />
        <path
           id="path3303"
           stroke-miterlimit="10"
           d="m 569.24241,260.04594 c -0.033,-11.89 -1.227,-23.95 -3.666,-36.049 l 0.037,-0.014 c -3.659,-18.152 -21.34,-29.901 -39.492,-26.24 -13.559,2.734 -23.546,13.292 -26.203,26.027"
           style="fill:none;fill-opacity:1;stroke:#000234;stroke-width:7.13517809;stroke-linecap:round;stroke-miterlimit:4;stroke-dasharray:none;stroke-opacity:1" />
        <path
           id="path3305"
           stroke-miterlimit="10"
           d="m 537.02141,364.35994 c 16.744,-24.469 27.606,-52.939 31.045,-83.098"
           style="fill:none;fill-opacity:1;stroke:#000234;stroke-width:7.13517809;stroke-linecap:round;stroke-miterlimit:4;stroke-dasharray:none;stroke-opacity:1" />
        <path
           id="path3307"
           stroke-miterlimit="10"
           d="m 536.67841,180.50994 c -4.529,-0.353 -9.184,-0.093 -13.859,0.85 -27.201,5.485 -44.805,31.979 -39.32,59.182 l 0.094,-0.016 c 7.418,36.792 -6.293,72.938 -32.779,95.876"
           style="fill:none;fill-opacity:1;stroke:#000234;stroke-width:7.13517809;stroke-linecap:round;stroke-miterlimit:4;stroke-dasharray:none;stroke-opacity:1" />
        <path
           id="path3309"
           stroke-miterlimit="10"
           d="m 558.35641,361.93594 c 24.108,-41.098 33.776,-90.867 23.617,-141.246 l 0.024,-0.01 c -3.023,-14.988 -12.424,-27.063 -24.807,-33.967"
           style="fill:none;fill-opacity:1;stroke:#000234;stroke-width:7.13517809;stroke-linecap:round;stroke-miterlimit:4;stroke-dasharray:none;stroke-opacity:1" />
        <path
           id="path3311"
           stroke-miterlimit="10"
           d="m 463.20541,290.60394 c -5.228,13.461 -13.877,25.422 -25.095,34.611"
           style="fill:none;fill-opacity:1;stroke:#000234;stroke-width:7.13517809;stroke-linecap:round;stroke-miterlimit:4;stroke-dasharray:none;stroke-opacity:1" />
        <path
           id="path3313"
           stroke-miterlimit="10"
           d="m 599.83241,295.67194 c 4.162,-25.266 3.9,-51.697 -1.461,-78.287 l 0.01,-0.007 c -7.31,-36.25 -42.617,-59.709 -78.865,-52.4 -36.25,7.31 -59.71,42.618 -52.4,78.869 l 0.078,-0.016 c 1.736,8.61 2.084,17.178 1.197,25.47"
           style="fill:none;fill-opacity:1;stroke:#000234;stroke-width:7.13517809;stroke-linecap:round;stroke-miterlimit:4;stroke-dasharray:none;stroke-opacity:1" />
        <path
           id="path3315"
           stroke-miterlimit="10"
           d="m 580.75441,355.52094 c 6.068,-12.456 10.967,-25.52 14.582,-39.021"
           style="fill:none;fill-opacity:1;stroke:#000234;stroke-width:7.13517809;stroke-linecap:round;stroke-miterlimit:4;stroke-dasharray:none;stroke-opacity:1" />
        <path
           id="path3317"
           stroke-miterlimit="10"
           d="m 600.41441,181.36994 c 6.883,9.447 11.887,20.496 14.35,32.705 l 0.005,0.004 c 9.095,45.104 4.563,89.789 -10.744,129.806"
           style="fill:none;fill-opacity:1;stroke:#000234;stroke-width:7.13517809;stroke-linecap:round;stroke-miterlimit:4;stroke-dasharray:none;stroke-opacity:1" />
        <path
           id="path3319"
           stroke-miterlimit="10"
           d="m 497.81841,154.56394 c 5.76,-2.64 11.913,-4.663 18.393,-5.969 25.609,-5.163 50.842,1.962 69.588,17.315"
           style="fill:none;fill-opacity:1;stroke:#000234;stroke-width:7.13517809;stroke-linecap:round;stroke-miterlimit:4;stroke-dasharray:none;stroke-opacity:1" />
        <path
           id="path3321"
           stroke-miterlimit="10"
           d="m 427.02341,312.66194 c 18.902,-15.185 28.896,-40.118 23.771,-65.524 l -0.063,0.014 c -6.366,-31.567 5.94,-62.562 29.315,-81.544"
           style="fill:none;fill-opacity:1;stroke:#000234;stroke-width:7.13517809;stroke-linecap:round;stroke-miterlimit:4;stroke-dasharray:none;stroke-opacity:1" />
        <path
           id="path3323"
           stroke-miterlimit="10"
           d="m 432.43241,234.58794 c 0.215,5.25 0.844,10.552 1.916,15.867 l 0.051,-0.013 c 3.752,18.607 -3.295,36.881 -16.821,48.343"
           style="fill:none;fill-opacity:1;stroke:#000234;stroke-width:7.13517809;stroke-linecap:round;stroke-miterlimit:4;stroke-dasharray:none;stroke-opacity:1" />
        <path
           id="path3325"
           stroke-miterlimit="10"
           d="m 633.43841,223.76794 c -0.642,-4.326 -1.399,-8.658 -2.272,-12.994 l -0.02,-0.001 c -10.958,-54.348 -63.892,-89.518 -118.238,-78.561 -41.765,8.422 -72.207,41.635 -79.088,81.229"
           style="fill:none;fill-opacity:1;stroke:#000234;stroke-width:7.13517809;stroke-linecap:round;stroke-miterlimit:4;stroke-dasharray:none;stroke-opacity:1" />
        <path
           id="path3327"
           stroke-miterlimit="10"
           d="m 627.73141,324.86994 c 6.826,-25.603 9.664,-52.564 7.931,-80.029"
           style="fill:none;fill-opacity:1;stroke:#000234;stroke-width:7.13517809;stroke-linecap:round;stroke-miterlimit:4;stroke-dasharray:none;stroke-opacity:1" />
        <path
           id="path3329"
           stroke-miterlimit="10"
           d="m 548.43641,114.54294 c -12.592,-1.701 -25.675,-1.366 -38.83,1.287 -63.397,12.782 -104.426,74.532 -91.643,137.928 l 0.039,-0.01 c 2.219,11 -1.225,21.823 -8.313,29.47"
           style="fill:none;fill-opacity:1;stroke:#000234;stroke-width:7.13517809;stroke-linecap:round;stroke-miterlimit:4;stroke-dasharray:none;stroke-opacity:1" />
        <path
           id="path3331"
           stroke-miterlimit="10"
           d="m 650.85241,293.50794 c 3.479,-27.945 2.584,-56.916 -3.289,-86.041 l -0.033,0.002 c -8.693,-43.112 -40.031,-75.878 -79.129,-88.413"
           style="fill:none;fill-opacity:1;stroke:#000234;stroke-width:7.13517809;stroke-linecap:round;stroke-miterlimit:4;stroke-dasharray:none;stroke-opacity:1" />
      </g>
    </g>
  </g>
</svg>
