<?xml version="1.0" encoding="utf-8"?>
<!-- Generator: Adobe Illustrator 15.1.0, SVG Export Plug-In . SVG Version: 6.00 Build 0)  -->
<!DOCTYPE svg PUBLIC "-//W3C//DTD SVG 1.1//EN" "http://www.w3.org/Graphics/SVG/1.1/DTD/svg11.dtd">
<svg version="1.1" id="tache-peinture_xA0_Image_1_"
	 xmlns="http://www.w3.org/2000/svg" xmlns:xlink="http://www.w3.org/1999/xlink" x="0px" y="0px" width="600px" height="724.8px"
	 viewBox="0 0 600 724.8" enable-background="new 0 0 600 724.8" xml:space="preserve">
<g>
	<path d="M305.28,32.64c0.995-0.726,0.862-3.449,0.479-4.8c-2.59-2.682-5.022,1.4-4.08,4.32
		C302.408,32.812,304.136,33.128,305.28,32.64z"/>
	<path d="M558,48.24c1.492-0.292,1.855,0.544,3.12,0.48c0.388-1.699,2.278-2.881,1.44-5.04c-2.471-1.588-6.582-1.954-6,1.92
		C556.732,46.75,557.729,46.77,558,48.24z"/>
	<path d="M228.72,86.16c1.854-0.707,4.271-0.85,5.04-2.64c-0.098-1.582-0.638-2.722-0.96-4.08c-1.42-0.227-3.56-0.855-5.04-0.24
		c-0.787,1.293-0.977,3.183-0.96,5.28C227.292,85.188,227.95,85.73,228.72,86.16z"/>
	<path d="M430.08,93.6c3.377-5.445-2.405-11.408-7.92-7.92c-0.543,2.112-2.229,2.25-2.4,4.32
		C419.349,94.947,426.285,96.313,430.08,93.6z"/>
	<path d="M253.44,93.12c0.303-1.849-1.448-2.186-1.68-4.08c-5.303-1.515-7.308,1.837-7.68,6
		C247.547,94.913,252.904,96.383,253.44,93.12z"/>
	<path d="M225.12,111.12c0.464,2.203,1.515,6.196,5.04,5.28c1.207-1.483,0.504-4.224-0.48-5.52c-1.078-0.361-2.628-0.251-3.12-1.2
		c-0.096-1.219-0.3-3.243-0.24-5.28c-2.757-4.431-6.379,0.125-4.561,5.04C222.852,110.029,224.236,110.324,225.12,111.12z"/>
	<path d="M415.439,115.92c0.411-1.216-0.912-2.763-0.479-4.8c-1.146-0.854-3.238-0.761-5.28-0.72
		C406.614,114.836,412.597,119.107,415.439,115.92z"/>
	<path d="M290.64,117.12c0.492-4.674-8.525-4.772-5.28,1.68C287.739,119.715,290.41,119.305,290.64,117.12z"/>
	<path d="M328.08,134.88c0.828,1.971,2.135,3.466,2.16,6.24c-1.729,0.352-2.705,1.456-2.881,3.36c1.465,0.936,1.97,2.831,2.641,4.56
		c3.002,0.201,5.135-0.465,7.68-0.72c0.313-1.567,1.007-3.348,0.48-5.04c4.686-2.733,13.641,2.828,14.88-3.12
		c1.526-0.633,3.273-1.047,4.8-1.68c2.029-5.197-0.887-12.126-0.96-18.24c-3.4-2.054-9.062-1.051-12.96-0.96
		c0.386-1.534,1.28-2.56,0.96-4.8c-1.1-0.892-3.573-0.417-4.8,0c-0.524,1.076-1.009,2.191-0.96,3.84
		c0.702,1.298,2.941,1.059,3.6,2.4c-0.832,2.208-3.683,2.397-5.52,3.6c-0.799,2.882-4.009,3.352-5.04,6
		c0.052,1.284,0.398,1.974-0.24,2.88C329.835,132.955,328.761,133.721,328.08,134.88z"/>
	<path d="M197.04,117.84c-0.478-1.514-4.45-2.47-5.76-0.72C190.178,122.718,198.458,122.339,197.04,117.84z"/>
	<path d="M312.24,133.68c-0.18,0.625-0.886,1.443-0.24,2.16c1.331,0.782,1.393-0.95,2.88-0.72c1.175,0.922,2.737,0.5,4.32,1.2
		c1.172,0.518,1.492,1.917,2.88,1.68c2.252-0.385,1.771-4.536,4.56-5.04c0.665-3.335,4.044-3.956,4.32-7.68
		c-1.276-2.004-1.093-5.467-3.36-6.479c0.199-0.679-0.338-0.622-0.24-1.2c-3.05-1.512-8.25-2.002-10.799,0.24
		c-1.279,1.602-1.537,4.224-3.121,5.52c0.49,2.649-1.035,3.284-1.92,4.56c0.326,2.006-0.629,2.73-0.72,4.32
		C310.906,133.094,311.772,133.188,312.24,133.68z"/>
	<path d="M398.64,125.28c0.604-1.851,2.573-1.915,2.641-3.84c0.058-1.678-1.655-3.53-2.641-3.6c-1.635-0.115-3.416,2.829-3.12,4.56
		C395.718,123.556,397.009,124.611,398.64,125.28z"/>
	<path d="M306.72,120.48c-2.433-1.392-4.673,0.915-6.72,1.44c-1.216-0.214-2.15-0.284-3.12,0.24c-0.046,2.926,1.171,4.589,1.92,6.72
		C302.699,127.34,306.321,125.521,306.72,120.48z"/>
	<path d="M276.72,127.68c0.175,0.654-0.477,0.483-0.479,0.96c1.673-0.625,2.873,0.417,4.8,0.24c1.41-0.75,1.925-2.395,1.68-4.8
		c-0.999-1.162-2.206-2.113-3.12-3.36C273.763,118.875,273.834,126.185,276.72,127.68z"/>
	<path d="M233.52,131.76c0.274,4.32,7.76,4.063,7.68,0c-0.035-1.746-2.376-2.248-2.4-4.561c-1.388-0.097-2.595-0.938-3.6-0.24
		c-0.334,0.232-0.041,1.146-0.24,1.68C234.536,129.776,233.452,130.697,233.52,131.76z"/>
	<path d="M366.48,131.52c0.602-1.152,0.611-2.74,0-3.36c-3.194-3.238-6.551,1.748-4.32,4.32
		C363.936,132.496,365.407,132.207,366.48,131.52z"/>
	<path d="M488.88,136.56c1.304-0.016,1.021-1.088,2.4-1.44c-0.564-0.789-0.572-2.04-0.24-3.12
		C487.256,128.644,484.661,136.612,488.88,136.56z"/>
	<path d="M298.08,134.88c2.359,2.921,2.952,7.608,8.64,7.2c0.883,0.717,0.452,2.748,1.44,3.36c1.636-0.035,3.019,0.182,3.12,1.68
		c0.116,0.756-1.101,0.18-1.2,0.72c3.771,0.238,9.226-0.735,9.359,4.08c-1.784-0.265-3.368,0.744-4.08-0.48
		c0.421,0.848-0.941,0.845-1.439,1.44c1.388,0.407,2.897,0.375,3.6,1.92c1.003,0.123,1.627-0.134,2.16-0.48
		c0.496-2.784,3.339-3.221,5.28-4.56c-2.584-2.776-2.358-8.362-8.399-7.68c-0.162,1.202,0.222,1.858,0.239,2.88
		c-2.028,1.013-3.138-0.822-3.84-1.92c-4.804-1.516-4.272-8.367-7.44-11.52C303.794,133.394,299.676,132.875,298.08,134.88z"/>
	<path d="M175.92,137.76c0.282-1.735-1.188-1.927-1.44-3.6c-1.157-0.123-1.477-1.083-2.88-0.96c-0.532,2.477-3.324,3.042-2.4,5.28
		C170.228,140.972,175.542,140.087,175.92,137.76z"/>
	<path d="M296.64,142.56c1.848-1.796-1.172-2.953-0.72-5.52c-1.596-1.535-4.014-2.3-4.32,0
		C291.27,139.527,295.067,141.546,296.64,142.56z"/>
	<path d="M221.76,143.28c0.106,0.454-0.326,1.447,0.48,1.2c5.6-3.661-1.367-11.306-7.2-7.92
		C212.737,140.783,217.583,143.228,221.76,143.28z"/>
	<path d="M405.359,145.92c1.336-0.041,2.432-1.177,3.36-2.16c0.015-1.615-0.748-2.452-0.96-3.84
		C402.883,134.892,399.928,146.088,405.359,145.92z"/>
	<path d="M373.92,151.68c0.873-1.214,1.138-4.022,0.72-5.76c-0.796-0.643-1.856-1.023-3.359-0.96
		C370.392,147.178,370.079,152.626,373.92,151.68z"/>
	<path d="M345.12,145.68c-0.927-0.047-1.769-0.009-2.4,0.24c-0.982,2.737-1.54,6.479,1.681,6.96c-0.099,2.418,1.078,3.561,1.92,5.04
		c3.435,0.142,4.53-2.745,4.56-5.28c1.894,0.054,3.845,0.165,4.56-0.96c0.629-2.856-2.409-2.822-1.439-5.28
		c-1.381-1.232-5.11-2.243-6,0c-0.734,1.85,0.771,2.981,0.72,5.04c-0.774,0.528-2.41,0.709-2.88-0.24
		C346.211,149.02,346.54,147.002,345.12,145.68z"/>
	<path d="M236.16,151.68c-1.131,0.556-2.629,1.176-1.92,2.88c4.213,2.696,5.293-2.269,7.92-3.36c0.325-1.268,0.429-3.364-0.24-4.32
		C237.761,146.331,235.977,147.509,236.16,151.68z"/>
	<path d="M425.52,149.04c-0.967,1.895,0.543,3.548,1.92,5.04c0.827-1.78,4.197-1.689,4.08-3.84
		C431.412,148.25,426.703,146.722,425.52,149.04z"/>
	<path d="M307.92,157.44c0.631-2.931-0.818-5.698-0.48-9.12c-1.991,0.328-4.614,0.025-6.479,0.48
		c-0.968,2.502,1.936,4.603,0.96,8.64C303.165,158.145,306.686,158.209,307.92,157.44z"/>
	<path d="M247.44,156.48c2.57,1.919,6.288,1.787,6.48-2.16C251.152,152.499,249.305,155.33,247.44,156.48z"/>
	<path d="M149.76,160.32c1.4,0.06,3.823-2.161,3.84-3.36c0.036-2.473-4.64-3.418-6.48-1.44
		C147.342,158.143,147.729,160.234,149.76,160.32z"/>
	<path d="M228.72,155.52c-3.487,0.165-2.655,1.039-4.56,2.4c-0.519,0.371-1.699,0.429-2.16,0.96c-3.542,4.077,6.377,2.943,7.68,1.92
		c0.644-0.505,2.454-2.884,2.4-3.601C231.923,155.092,229.75,155.471,228.72,155.52z"/>
	<path d="M263.28,158.4c0.315-0.644,0.644-1.275,0.96-1.92c-0.982-0.887-4.38-2.281-4.32,0.48
		C260.476,158.004,261.799,158.281,263.28,158.4z"/>
	<path d="M291.84,157.2c-0.037,0.227,2.217,3.717,2.4,3.84c2.836,1.91,6.203-0.493,5.52-3.6
		C298.606,156.035,292.294,154.458,291.84,157.2z"/>
	<path d="M321.6,156.24c-0.246,2.234-2.234,2.726-2.88,4.561c-1.895,0.265-3.629,0.69-3.6,2.88c1.434,2.007,5.96,1.919,5.76-1.44
		c3.373-0.384,5.16-2.112,3.84-6C323.696,155.649,322.688,155.782,321.6,156.24z"/>
	<path d="M414.24,176.64c1.02,0.814,2.774,0.628,4.32,0.24c-0.029-1.03-0.599-2.464,0-3.36c3.01-0.426,4.113,1.423,6.72,0.72
		c1.017-1.279,0.467-1.84,1.2-2.88c1.492-2.119,5.226-2.29,6.239-3.6c1.474-1.903-1.005-4.049-1.68-5.76
		c-2.462-0.95-3.171,1.712-4.56,2.64c-0.922,0.615-4.608,2.144-5.28,2.16c-1.503,0.036-2.021-1.506-3.841-0.72
		c-1.454,1.826-1.032,5.527-1.439,8.4C415.529,175.369,414.158,175.278,414.24,176.64z"/>
	<path d="M309.6,167.52c2.135-2.653-1.805-4.498-4.56-4.56c-0.276,0.284-0.271,0.848-0.24,1.44
		C307.143,164.698,307.407,167.073,309.6,167.52z"/>
	<path d="M440.88,173.28c0.122-1.722-0.773-2.426-0.479-4.32C432.98,164.569,437.584,176.928,440.88,173.28z"/>
	<path d="M429.6,171.84c-0.208,0.992-0.751,1.649-0.96,2.64c-2.933,0.827-2.806,4.714-5.52,5.76c-1.486,0.207-0.741-1.818-2.4-1.439
		c-0.359,2.2-2.959,2.16-5.28,2.399c-0.743,2.998,0.901,6.001-0.239,8.88c0.698,0.662,1.593,1.126,3.12,0.96
		c1.254-1.545,0.3-5.3,2.64-5.76c0.95,2.762,4.164,4.433,6.96,4.56c0.058-2.422,1.389-3.572,1.2-6.24
		c-1.132,0.011-1.818-0.422-2.88-0.48c-0.671-0.775-1.193-2.414-0.721-3.6c2.676-1.061,3.572,1.48,3.84,3.6
		c3.001-0.056,4.545-2.794,7.681-1.92c0.145,1.218-0.958,1.671,0,2.4c2.92,0,0.736-3.612,0.96-5.76
		C435.615,175.638,433.777,170.69,429.6,171.84z"/>
	<path d="M505.2,177.84c0.702-1.377,0.678-3.482,0.72-5.52C500.642,167.602,499.381,180.779,505.2,177.84z"/>
	<path d="M206.4,180.72c2.784-3.71-1.104-7.217-4.08-8.16c-1.926,1.41-1.182,5.953-0.24,7.92
		C203.38,180.805,205.053,181.125,206.4,180.72z"/>
	<path d="M466.32,177.12c2.512-4.461-8.413-5.926-6,0.24C461.936,178.45,465.366,178.813,466.32,177.12z"/>
	<path d="M141.12,175.68c-0.319-2.583-8.53-3.391-6.48,1.68C136.605,178.762,141.446,178.322,141.12,175.68z"/>
	<path d="M446.64,182.88c0.931-1.39,2.702-1.938,3.36-3.6c-1.012-2.599-6.99-2.664-6.96,0.24
		C443.055,180.916,445.425,182.045,446.64,182.88z"/>
	<path d="M168,184.56c-0.979-0.86-2.786-0.895-4.08-1.44c0.19-0.83-0.267-1.013-0.48-1.44c-2.355-0.237-5.37-1.888-7.44-0.24
		c-0.252,1.932,0.468,2.892,0.48,4.56C158.879,187.461,168.068,189.682,168,184.56z"/>
	<path d="M461.76,191.52c0.33-2.398-0.377-5.652-2.4-6.48c-0.848,1.471-2.092,2.547-4.319,2.64c-0.779,1.301-1.365,2.794-1.92,4.32
		C455.246,195.216,458.85,191.792,461.76,191.52z"/>
	<path d="M497.28,198.24c0.565-4.039-1.041-7.895-3.601-9.6c-1.376,2.52-1.684,6.201-1.68,9.6
		C493.209,199.102,496.144,199.3,497.28,198.24z"/>
	<path d="M169.44,191.28c0.096,2.064,0.798,3.522,1.44,5.04c3.123,0.237,4.032,2.688,7.44,2.64c0.41-1.977,0.678-4.384-0.24-6
		C174.027,193.708,173.183,189.316,169.44,191.28z"/>
	<path d="M473.28,206.16c1.519-2.019,0.869-7.831-1.681-8.16c-1.569-0.203-2.484,1.745-4.319,1.92
		c-0.663,1.097-0.464,3.057-0.48,4.8C468.994,205.12,470.921,206.681,473.28,206.16z"/>
	<path d="M151.44,205.44c3.124,3.88,10.261-1.851,6.96-5.76c-2.454-0.343-2.239,1.441-2.4,2.88c-1.193,0.073-2.202-0.038-3.12-0.24
		C152.068,203.028,151.393,203.873,151.44,205.44z"/>
	<path d="M456.96,210.96c-0.072,3.021,3.031,2.649,6.24,2.4c1.444,2.931,11.677,5.206,12,0.72c0.125-1.742-1.625-2.243-2.16-3.84
		C468.932,210.197,457.082,205.854,456.96,210.96z"/>
	<path d="M141.6,217.92c0.574-1.186,1.996-1.524,2.64-2.64c0.13-2.13-0.505-3.496-1.68-4.32
		C138.762,210.261,138.445,216.785,141.6,217.92z"/>
	<path d="M152.4,218.88c-2.68,0.393-2.528-3.899-5.04-2.16c0.056,1.544,0.385,2.814,0.24,4.56
		C149.783,223.327,151.514,220.342,152.4,218.88z"/>
	<path d="M154.32,225.12c3.119-0.275,5.38-3.394,5.04-7.92c-0.676-0.365-0.943-1.137-2.16-0.96
		C158.456,220.563,153.137,221.739,154.32,225.12z"/>
	<path d="M125.04,220.32c-2.674-5.134-9.749-1.648-8.64,4.08C120.18,226.56,123.135,222.362,125.04,220.32z"/>
	<path d="M134.64,226.08c0.166,1.834,1.114,2.886,1.681,4.32c3.379,0.371,6.406-2.917,3.84-5.52
		C137.867,224.828,136.114,225.314,134.64,226.08z"/>
	<path d="M498.24,238.8c2.999-0.854,1.598-5.579-0.721-5.521C493.296,233.388,493.934,240.026,498.24,238.8z"/>
	<path d="M466.8,235.2c-0.284,0.596-0.348,1.413-0.479,2.16c1.462,0.298,1.668,1.852,3.359,1.92c0.568-1.031,1.064-2.135,1.44-3.36
		C470.161,235.199,468.566,235.114,466.8,235.2z"/>
	<path d="M109.92,243.6c0.423-1.498,2.552-1.288,3.12-2.64c-0.104-2.137-1.274-3.206-1.68-5.04c-1.714-0.676-3.729-0.001-3.84,1.68
		c1.51,1.29,0.109,3.29-0.24,4.8C107.654,243.306,109.262,242.978,109.92,243.6z"/>
	<path d="M121.68,244.08c2.052,0.294,4.126,1.759,5.521,1.92c1.536-1.024,0.777-4.342,0.96-6.72
		C125.593,234.943,119.437,238.755,121.68,244.08z"/>
	<path d="M533.04,244.08c0.249-1.665,1.78-2.631,1.44-4.32c-0.426-2.112-6.059-3.492-6.961-0.24
		c-0.391,1.408,0.369,2.437,0.721,4.56C529.819,244.325,530.878,243.757,533.04,244.08z"/>
	<path d="M58.56,244.8c2.955-4.182-2.861-8.765-6.24-5.28c0,1.44,0,2.88,0,4.32C53.807,245.249,55.943,244.85,58.56,244.8z"/>
	<path d="M519.6,256.8c1.245-2.231,2.656-5.456,2.16-8.64C516.094,245.333,513.602,256.528,519.6,256.8z"/>
	<path d="M532.32,248.88c-1.719-1.573-4.503-1.229-7.2-0.96c-1.316,2.588-0.686,6.772,0.239,9.36
		C532.068,260.328,536.504,252.71,532.32,248.88z"/>
	<path d="M499.68,248.4c-0.164,2.161-1.746,4.144-1.439,6c0.38,2.3,3.022,2.4,4.32,4.08c0.032,1.647,0.688,2.672,1.199,3.84
		c6.479,1.232,8.375-7.563,2.641-8.64c-0.361-1.719-1.176-2.984-1.44-4.8C503.825,248.129,501.095,247.394,499.68,248.4z"/>
	<path d="M114.24,257.04c0.677,0.683,1.543,1.176,3.12,0.96c2.109-1.881,2.732-6.337,1.2-9.36c-3.109-1.04-3.803,2.227-5.28,3.6
		C114.474,253.317,115.07,255.188,114.24,257.04z"/>
	<path d="M489.12,258.96c-0.069,1.467,1.27,1.312,2.64,2.64c0.408,0.395,0.436,1.149,0.721,1.44c0.873,0.894,3.316-0.146,4.08-0.24
		c0.957-1.599,2.41-1.801,2.399-3.12C498.935,256.506,489.268,255.841,489.12,258.96z"/>
	<path d="M539.52,264.48c2.5-0.169,2.199-3.079,2.16-6.24C536.693,253.465,534.74,264.803,539.52,264.48z"/>
	<path d="M116.4,267.84c0.02,1.86-0.413,3.267-0.24,5.28c0.64,0.96,1.743,1.457,2.64,2.16c2.069-1.147,7.613-3.622,7.44-6
		c-0.147-2.021-3.848-1.771-2.88-4.56C119.717,262.015,118.382,266.616,116.4,267.84z"/>
	<path d="M27.12,268.32c-0.77,2.244-4.346,3.79-2.64,6.96c1.041,0.32,2.315,0.405,3.6,0.48c1.651-2.375,2.785-5.082,0.48-7.44
		C28.08,268.32,27.6,268.32,27.12,268.32z"/>
	<path d="M87.12,274.8c0.391-0.97,0.874-1.846,0.72-3.36c-2.164-4.024-6.642,0.758-3.6,3.84
		C85.403,275.323,86.163,274.963,87.12,274.8z"/>
	<path d="M504.48,270.48c0.676,3.892-1.111,6.549-1.44,8.64c4.293-1.443,8.942,1.352,13.68,1.68c1.257-0.559,2.011-3.032,0.72-4.08
		c-1.377,0.162-3.82,0.637-4.799-0.24c0.229-2.069-0.612-3.068-0.48-5.04C510.64,269.964,507.092,270.188,504.48,270.48z"/>
	<path d="M541.439,285.36c1.837,1.66,4.309,5.821,7.44,2.64c0.247-1.667,0.322-2.967,0-4.56
		C546.605,281.826,541.842,282.825,541.439,285.36z"/>
	<path d="M80.88,298.08c0.934-1.907,6.397-4.091,5.28-7.44c-0.604-1.81-4.057-1.629-3.6,1.68
		C79.812,292.346,78.672,296.505,80.88,298.08z"/>
	<path d="M512.641,293.76c-1.39-0.232-2.486,2.955-2.4,4.32c0.053,0.84,0.593,1.455,0.96,1.92
		C514.168,299.905,513.931,295.619,512.641,293.76z"/>
	<path d="M95.04,314.64c0.73,0.549,0.625,1.936,1.68,2.16c2.018-0.383,3.73-1.07,5.04-2.16c0.226-3.215,1.095-5.785,2.16-8.16
		c-0.754-2.206-4.826-1.094-7.2-1.68c-0.557-0.724-0.524-2.036-1.68-2.16c-1.475-0.518-3.781-0.779-4.56,0.48
		c-0.141,4.161,1.335,7.245,0.72,10.56C92.152,314.328,93.349,314.731,95.04,314.64z"/>
	<path d="M77.52,316.8c5.317,1.015,6.951-3.911,4.56-7.2c-0.744-0.286-2.863-0.506-3.12,0.24
		C77.989,312.658,74.224,313.951,77.52,316.8z"/>
	<path d="M113.28,311.52c-1.901-0.466-5.035,0.73-4.08,3.12C111.635,315.597,113.36,313.868,113.28,311.52z"/>
	<path d="M518.641,316.56c-1.191-1.583-4.021-1.675-6-0.72c-0.672,1.729-1.496,3.305-1.921,5.28c2.271,0.624,5.317,0.431,7.44,0.72
		C519.105,320.837,519.008,318.155,518.641,316.56z"/>
	<path d="M507.6,317.28c-1.66,0.681-5.809,0.896-6.479,3.36c2.003,0.397,0.881,3.918,2.88,4.32c1.32-0.76,2.632-1.528,3.84-2.4
		C506.742,320.896,508.316,319.069,507.6,317.28z"/>
	<path d="M68.64,330.96c1.12-0.152,1.292-1.3,2.88-2.16c1.38-0.748,3.517-0.679,4.32-1.2c0.967-0.627,1.075-2.045,2.16-2.4
		c1.634-0.535,3.18,0.568,5.04-0.24c1.171-0.989,0.314-4.005,2.64-3.84c0.537,0.663,0.498,1.902,0.48,3.12
		c2.096,1.344,2.35,4.53,6.479,3.84c2.805-3.676-1.875-12.012-6.96-8.64c-0.574-0.305-0.883-0.876-1.92-0.72
		c-1.838,1.802-4.979,2.047-7.439,3.12c-1.1,0.479-1.804,1.291-2.88,1.92c-2.394,1.399-5.988-0.004-8.88,1.439
		c-0.738,1.775,0.821,2.906,0.72,4.8C66.513,330.369,67.474,331.119,68.64,330.96z"/>
	<path d="M84.48,339.84c2.33-1.99,5.236-3.404,5.28-7.68c-0.412-1.028-1.819-1.061-2.399-1.92c0.074-0.874-0.039-1.562-0.24-2.16
		c-0.853-0.655-2.667-0.563-3.84-0.24c-0.657,0.543-0.594,1.806-0.96,2.64c-1.919,1.121-4.349,1.732-7.681,1.44
		c-1.315,1.164-2.817,2.142-4.56,2.88c0.152,4.451-3.518,6.89-1.68,11.52c3.261-0.308,4.234-3.677,6.24-5.28
		c1.2-0.958,2.85-0.897,3.601-2.4c1.728,0.048,2.832-0.528,4.56-0.48C83.942,338.138,83.399,339.8,84.48,339.84z"/>
	<path d="M516.96,329.52c-0.859,0.765-0.451,3.166-0.24,4.32c2.095,1.441,4.562,6.376,7.921,2.88
		c0.086-2.531,1.391-6.344-0.721-7.68C522.192,328.917,519.5,330.351,516.96,329.52z"/>
	<path d="M530.16,344.88c6.607,0.946,8.628-7.136,7.199-13.44c-3.729-1.583-3.052,3.139-3.84,5.28
		C528.939,336.925,531.955,341.934,530.16,344.88z"/>
	<path d="M553.92,345.84c0.101,0.677,2.959,2.845,4.561,3.36c4.509,1.45,7.519-0.963,8.64-3.12
		C566.129,343.113,553.219,341.127,553.92,345.84z"/>
	<path d="M45.36,344.4c-0.834,0.939-0.692,4.127,0.24,4.8c1.583-0.017,3.313,0.113,4.56-0.24c0.482-1.437,1.456-2.384,1.2-4.56
		C49.188,343.044,47.489,346.115,45.36,344.4z"/>
	<path d="M529.92,350.4c1.402,0.037,0.654,2.227,1.2,3.12c1.446,1.036,4.892,0.591,5.04-1.2c-0.617-1.623-1.611-2.868-2.4-4.32
		c-1.04,0-2.08,0-3.119,0c-2.253-2.546-9.062-2.389-8.641,2.4C523.97,353.788,529.311,355.895,529.92,350.4z"/>
	<path d="M520.32,353.76c0.49-0.79,0.711-1.849,0.96-2.88c-1.952-1.12-6.204-3.402-8.4-1.92
		C513.801,351.987,515.789,355.132,520.32,353.76z"/>
	<path d="M78.48,358.8c0.632-1.61,1.843-4.783-0.24-5.76c-1.077,0.923-3.194,0.806-3.601,2.4c1.651,0.964,3.567,1.436,3.601,3.6
		c0.006,0.438-0.703,1.14-0.96,2.16c-0.539,2.131-0.668,2.844-2.16,3.36c0.07,1.642-0.804,3.446-0.72,4.32
		c1.273,0.482,3.287-0.182,4.56-0.48C79.269,365.19,80.562,361.019,78.48,358.8z"/>
	<path d="M530.4,355.68c-2.402,0.804-2.229,3.808-1.681,6.72c1.957,1.318,5.77,1.807,8.16,1.92c1.809-1.601,0.013-5.001,2.64-5.76
		c1.264-0.365,2.555,0.494,3.84,0.24c1.066-0.951,1.289-3.421,0.961-5.04C538.212,350.844,536.114,358.19,530.4,355.68z"/>
	<path d="M41.28,356.16c0.53,0.669,1.233,1.167,2.64,0.96c0.224,0.577,0.965,0.635,0.72,1.68c0.909,0.131,1.5,0.58,2.641,0.479
		c1.122-1.171,1.106-3.629,0.24-5.04C45.402,353.962,41.889,354.15,41.28,356.16z"/>
	<path d="M58.32,354.48c-0.972,0.708-0.696,2.665-0.72,4.32c0.958,1.13,3.75,1.577,5.28,0.72c0.487-1.594-0.057-3.838-0.72-5.04
		C61.133,354.054,59.384,354.227,58.32,354.48z"/>
	<path d="M95.04,368.4c2.296-0.504,3.814-1.785,3.84-4.56c0.728-1.033,2.552-0.969,3.36-1.92c-0.014-2.706-2.713-2.727-3.601-4.56
		c-1.544,0.104-2.119,0.237-3.6,0c-1.007,2.513-2.05,4.99-2.64,7.92C93.517,366.083,94.343,367.177,95.04,368.4z"/>
	<path d="M524.4,365.76c-3.858-2.188-2.404,3.829-4.801,4.56c0.156,2.476-1.332,3.308-0.959,6c1.256,1.623,2.685,3.075,4.56,4.08
		c0.124,0.529-1.21,1.324,0,1.44c0.792-0.385,0.137-0.727,0.239-1.681C529.784,378.041,525.812,370.376,524.4,365.76z"/>
	<path d="M52.8,374.88c0.606,2.291,6.285,1.87,6.72-0.96c-1.256-1.144-2.527-2.273-4.08-3.12
		C55.069,372.702,52.18,372.539,52.8,374.88z"/>
	<path d="M68.4,375.12c0.688,1.312,2.789,1.212,4.56,1.44c0.691,1.221,1.75,2.401,3.36,1.44c0.037-0.283-0.042-0.682,0.24-0.721
		c-0.291-1.789-2.576-1.584-2.4-3.84C72.349,371.096,68.952,372.806,68.4,375.12z"/>
	<path d="M514.32,382.56c1.662-2.436-1.846-3.067-3.36-3.84c0.187,1.307-0.495,1.745-0.72,2.64
		C511.299,382.061,512.854,382.266,514.32,382.56z"/>
	<path d="M75.36,383.76c-0.321,1.585-2.687,0.758-4.08,0.72c-1.18,0.74-1.849,1.991-2.4,3.36c1.062,0.938,1.27,2.73,1.92,4.08
		c1.282,0.632,4.269,0.751,5.521,0C77.195,389.676,77.754,384.676,75.36,383.76z"/>
	<path d="M86.4,389.52c-0.213,1.924,0.048,4.306,0.48,6c3.169,0.057,5.6,2.214,8.64,0.96c0.213-4.533-7.067-1.573-6-6.96
		C88.635,389.096,87.336,389.312,86.4,389.52z"/>
	<path d="M83.52,413.28c0.685,1.962,2.239,3.752,0.96,6.24c0.928,1.072,1.908,2.093,3.6,2.4c2.278-2.156-0.631-4.146-0.24-7.2
		c3.19-1.653,4.686,2.066,7.68,2.16c1.306,1.615,0.168,4.368,0.72,6.479c2.302,0.898,3.988,2.412,3.36,6.24
		c0.501,0.141,1.289,2.144,2.16,2.16c0.268,0.005,0.964-0.963,0.96-0.96c1.543-1.073,4.983-0.382,6-1.681
		c1.195-1.523-0.642-3.182-0.72-4.8c-2.316-0.236-3.266,0.895-5.52,0.72c-1.005-1.313-1.802-2.838-2.16-4.8
		c0.97-1.51,2.66-2.3,2.64-4.8c-1.658-2.222-4.954-1.463-8.16-1.2c-0.904-1.815-1.934-3.507-3.84-4.319
		c-1.016,0.824-1.792,1.888-3.84,1.68c-0.053-0.188-0.201-0.279-0.48-0.24c-0.969-1.289-0.161-4.46-0.479-5.76
		c-0.846-1.104-3.65-0.862-4.56,0c-0.245,0.791,0.302,2.555-0.48,3.359c-3.681-1.035-5.653,0.84-5.76,4.08
		c0.693,0.827,1.669,1.371,2.64,1.92c2.962-0.336,0.803-5.227,3.84-5.039C83.583,410.028,82.846,411.349,83.52,413.28z"/>
	<path d="M511.92,411.36c-2.498-0.478-5.99-3.555-6,0c-0.004,1.47,1.951,1.97,2.4,3.84c0.74,3.085-0.83,5.267-0.961,8.16
		c3.283,4.339,5.694-1.285,7.681-3.359c0.086-1.767-0.062-3.299-0.24-4.801C513.337,414.423,512.223,413.297,511.92,411.36z"/>
	<path d="M528.72,411.12c-1.596,0.205-0.423,1.259-1.2,2.4c-0.646,0.948-1.897,0.602-2.16,1.68c0,1.601,0,3.2,0,4.801
		c1.235,0.845,2.285,1.875,2.641,3.6c0.752,0.505,2.376,0.675,3.359,0.24c0.033-2.147,0.486-6.207,0-8.881
		C531.174,413.934,529.963,410.96,528.72,411.12z"/>
	<path d="M501.6,412.08c-2.614,0.315-2.066,3.487-1.92,6c1.566-1.149,4.135,0.38,5.28-0.479c0.054-0.187,0.007-0.474,0.24-0.48
		C504.634,414.806,501.83,414.73,501.6,412.08z"/>
	<path d="M64.56,417.36c0.187,1.634,2.852,2.622,5.28,2.641c0.472-2.342,2.543-1.783,2.64-3.601
		C72.699,412.324,64.17,413.945,64.56,417.36z"/>
	<path d="M493.92,417.6c-0.172-1.027-0.738-1.662-1.439-2.16c-2.124,1.265-5.264-2.172-6,0.72c1.615,2.201,3.643,0.208,6,0
		C493.237,416.363,493.162,417.397,493.92,417.6z"/>
	<path d="M497.04,423.36c2.531,0.086,3.125-2.619,2.64-4.8C497.055,418.231,495.682,421.251,497.04,423.36z"/>
	<path d="M91.92,429.36c0.296-1.477,1.459-2.152,0.96-3.6c-0.847-2.459-3.135-0.677-4.08,0.96c-2.547,0.077-3.05-3.103-5.76-1.44
		c-1.638,5.159,1.93,8.834,4.32,11.521c1.754-0.208,3.01-0.639,4.8-0.24c0.529-1.267,2.418-3.312,2.16-4.8
		C94.062,430.277,92.686,430.69,91.92,429.36z"/>
	<path d="M483.84,425.52c-0.369,1.458-0.788,3.253,0.24,4.32c1.584-0.656,5.088,0.607,5.279-1.44c-0.274-1.485-2.125-1.395-3.6-1.68
		C485.044,426.445,484.576,425.019,483.84,425.52z"/>
	<path d="M106.08,445.44c0.213-4.011-10.389-0.675-6.72-6c2.974-0.142,7.009,2.144,8.16-0.96c-0.812-1.348-2.392-1.928-3.36-3.12
		c-2.773,0.268-4.759,1.321-7.2,1.92c0.259,2.894-1.251,5.463-2.16,7.92c1.578,1.702,4.772,1.788,6.72,3.12
		C102.908,446.847,105.957,447.746,106.08,445.44z"/>
	<path d="M90.72,459.6c-6.835,0.771,3.813,6.088,2.4,0.96C92.899,459.758,92.178,459.435,90.72,459.6z"/>
	<path d="M520.08,461.52c0.301,2.24,2.273,3.882,5.04,2.88c0.312-0.888,0.796-1.604,0.96-2.64
		C525.259,459.688,521.338,460.188,520.08,461.52z"/>
	<path d="M99.12,468.24c0.301-1.694-0.192-4.366,0-6.72c-3.926-0.423-4.643,3.446-3.36,6.24
		C96.52,468.201,98.052,468.877,99.12,468.24z"/>
	<path d="M100.8,469.68c-2.341,1.528-4.367,4.553-4.08,7.92c0.527,0.273,0.981,0.619,1.92,0.479
		C99.388,475.539,104.143,472.563,100.8,469.68z"/>
	<path d="M481.439,472.56c-0.348,2.588,1.196,3.284,2.881,3.84c2.201-1.078,4.406-2.153,4.08-5.76
		C486.293,470.558,483.182,471.483,481.439,472.56z"/>
	<path d="M101.52,478.08c-0.086,1.206,0.148,2.093,0.48,2.88c2.135,1.693,9.079,2.02,8.64-1.199
		C110.278,477.104,104.771,478.413,101.52,478.08z"/>
	<path d="M117.6,483.84c-1.828,0.412-3.163,1.316-4.8,1.92c-0.569,1.363-0.628,3.245,0.24,4.319c2.047,0.11,4.058,1.003,6,0.48
		c0.451-0.349,0.029-1.571,0.48-1.92c1.38-0.38,3.1-0.421,3.84-1.44C122.621,484.594,119.031,478.645,117.6,483.84z"/>
	<path d="M132.72,484.08c-0.004,1.044-0.079,2.16,0.24,2.88c0.563,0.077,0.901,0.38,1.68,0.24c0.234-0.775-0.495-1.84,0-3.12
		C134.136,483.41,133.41,483.731,132.72,484.08z"/>
	<path d="M468.72,499.68c-0.713-2.247-1.364-4.556-1.2-7.68c-2.776-2.18-4.05,2.199-6,3.119c-0.023,1.385,0.916,1.805,0.961,3.12
		c-0.268,0.992-0.544,1.53-0.48,2.4c0.208,2.859,3.119,3.264,5.04,4.56c-0.171,1.109-0.558,2.003-0.72,3.12
		c0.912,0.208,1.155,1.085,2.399,0.96c2.325-1.434,2.905-4.197,2.88-7.439C470.99,500.77,469.653,500.426,468.72,499.68z"/>
	<path d="M138.96,504.48c-0.127-1.073-0.396-2.004-1.2-2.4c-2.13,0.351-4.828,0.132-4.32,3.12c-0.463,1.141-2.681,2.254-1.68,3.36
		c1.266,0.065,0.741-1.659,1.68-1.92C135.979,506.619,137.941,506.021,138.96,504.48z"/>
	<path d="M125.52,515.76c1.473,0.465,3.202,1.621,4.8,1.199c1.951-5.078-3.033-7.143-2.88-12
		C119.419,500.446,126.16,511.478,125.52,515.76z"/>
	<path d="M432.72,515.76c-0.093-1.377-0.552-4.721,0.24-6.48C427.676,507.106,429.402,515.355,432.72,515.76z"/>
	<path d="M398.64,511.68c0.892,0.148,1.099,0.982,2.4,0.72c0.269-0.372,0.78-0.5,0.72-1.2
		C400.961,510.764,398.866,510.777,398.64,511.68z"/>
	<path d="M426.48,514.56c1.576,0.344,0.548,3.292,1.199,4.56c0.739,0.168,0.461,0.168,1.2,0c0.335-1.351-0.195-3.764-0.96-4.8
		C427.498,514.458,426.51,514.03,426.48,514.56z"/>
	<path d="M134.88,523.2c2.648-0.248,2.872,1.929,4.8,2.4c1.448-1.111,0.298-4.822,0.96-6.72
		C137.581,518.103,132.896,519.713,134.88,523.2z"/>
	<path d="M159.6,530.16c-2.833-1.462-8.349,0.566-8.64,3.601c-0.169,1.762,1.498,2.887,1.92,4.8c2.451,0.308,4.949,0.242,7.2-0.24
		C161.692,535.552,160.448,532.917,159.6,530.16z"/>
	<path d="M402.96,538.32c1.212,1.908,5.441,0.799,7.92,1.44c1.249-0.665,2.182-2.839,1.2-4.32
		C409.084,535.499,403.664,535.173,402.96,538.32z"/>
	<path d="M188.64,537.36c-0.187-0.053-0.279-0.201-0.24-0.479c-2.211-1.694-4.752,0.71-3.6,3.12
		C186.751,541.368,188.824,539.625,188.64,537.36z"/>
	<path d="M200.16,548.88c1.478-0.122,1.825-1.376,2.16-2.641c2.3-0.503,3.91-6.156,1.68-7.439c-2.506,0.294-2.903,2.696-5.04,3.359
		C198.452,544.433,198.53,547.968,200.16,548.88z"/>
	<path d="M135.12,546.48c-0.736,1.454-2.114,6.206,0.48,6.72c1.107-0.655,3.496-2.103,4.8-3.359
		C140.789,547.529,137.646,546.675,135.12,546.48z"/>
	<path d="M439.439,547.2c-2.055,0.895-2.331,6.803,0,7.2C442.396,554.903,443.021,547.47,439.439,547.2z"/>
	<path d="M196.08,553.92c1.895,1.373,6.559,1.003,8.64,0.239c0.33-2.914-3.389-2.147-5.52-1.92
		C197.748,550.93,196.147,551.934,196.08,553.92z"/>
	<path d="M244.8,563.04c-2.051-1.788-4.16-3.52-4.08-7.439c-2.204-2.824-4.653,0.845-7.68-0.24c-0.041,1.314-0.09,2.804-0.72,4.08
		c0.322,0.158,0.447,0.513,0.479,0.96C236.964,560.305,239.915,565.52,244.8,563.04z"/>
	<path d="M225.84,556.32c-3.106-0.935-6.854-2.097-10.8-1.439c-1.361,1.545-0.913,4.078,0,5.76c0.969,0.471,2.242,0.638,3.36,0.96
		c0.81,1.83,2.005,3.274,3.12,4.8c2.159-0.48,2.165-3.115,3.12-4.8C229.271,561.888,226.617,558.307,225.84,556.32z"/>
	<path d="M342.48,567.12c2.853-2.387-0.005-5.354-0.48-8.399c-0.989-0.772-3.525-1.452-4.8-0.48
		C336.877,562.23,337.536,568.39,342.48,567.12z"/>
	<path d="M212.88,562.56c-3.135,2.303,3.44,8.938-2.16,9.6c0.141-1.26-0.423-1.816-0.24-3.12c-0.896-1.018-3.68-1.34-5.04-0.479
		c-0.779,0.82-0.253,2.946-1.44,3.36c-1.528-0.552-2.674-1.486-3.12-3.12c-0.64,0-1.28,0-1.92,0
		c-0.808,1.111-1.554,2.285-1.44,4.319c2.689,0.431,4.005,2.234,4.56,4.801c1.307,0.186,1.871-0.369,2.64-0.721
		c0.601-0.919-0.326-3.366,0.96-3.6c1.946,0.632,3.504-0.039,4.8-0.72c2.994,4.562,9.176,1.082,8.88-3.36
		c-1.299-1.102-1.596-3.205-2.641-4.561C214.82,564.78,213.395,564.125,212.88,562.56z"/>
	<path d="M191.04,565.68c-1.542-1.89-6.043-2.511-6.48,0.72c-0.714,0.086-1.218,0.382-1.68,0.72c-0.5,3.08,3.377,3.592,4.08,6.24
		c2.488,0.053,4.844-1.641,5.04-3.6C192.143,568.334,190.794,567.385,191.04,565.68z"/>
	<path d="M359.76,566.16c-0.266-2.299-6.774-3.255-7.92-0.72c0.284,1.556,1.375,2.306,0.96,4.561
		c-2.092,1.093-4.345-0.433-5.04,2.159c-0.344,1.283,0.592,2.878,0.24,4.561c2.367,2.272,6.464,2.815,7.2,6.72
		c3.362,1.307,3.593-2.229,4.08-4.56c-2.107-2.293-2.62-6.181-3.36-9.841C357.889,568.658,359.963,567.913,359.76,566.16z"/>
	<path d="M242.16,568.8c-1.956-1.18-4.307-3.192-6.96-2.88c-0.556,0.323,0.045,1.805-0.72,1.92c-1.044,0.796-3.511,0.168-4.8,0.72
		c-0.904,0.855-0.311,3.209-0.479,4.8c-0.695,1.064-2.196,1.324-2.4,2.88c0.74,1.691,4.594,1.413,6,0.48
		c-0.133-1.555,0.623-3.701,2.16-4.32c2.705,1.216,2.693,5.147,5.52,6.24c-0.177,1.217,0.595,1.484,0.96,2.16
		c1.678,0.157,2.826-0.215,4.32-0.24C248.831,577.575,250.015,565.787,242.16,568.8z"/>
	<path d="M345.359,582c-1.545-0.34-3.057,0.613-4.079,0c0.069-1.131,0.7-1.699,0.479-3.12c-0.338-0.862-1.632-0.769-1.68-1.921
		c0.683-1.598,0.41-3.973-0.24-5.52c-2.133-1.681-5.104,0.393-6.96,1.2c-0.42,1.021-0.179,2.701-0.24,4.08
		c1.478,1.482,3.054,2.866,5.521,3.36c0.213,1.296,2.43,2.494,2.88,4.319c0.474,1.921-0.747,4.183,0.72,5.28
		c0.849,0.634,2.468,0.863,4.08-0.48C345.979,586.944,347.096,583.306,345.359,582z"/>
	<path d="M256.08,575.28c-1.032-1.021-3.13-1.188-4.08,0c0.764,2.077-0.678,4.875,0.48,6.48c1.406-0.274,2.464-0.896,3.12-1.92
		C255.306,577.866,256.265,577.145,256.08,575.28z"/>
	<path d="M324,577.2c-1.037-0.269-1.004-1.667-1.92-1.68c-1.949-0.027-2.064,2.089-1.2,4.32c2.235,0.398,4.53,1.288,6.24-0.24
		c0.126-1.356,1.579-2.407,0.479-3.6C326.012,576.395,325.882,577.688,324,577.2z"/>
	<path d="M290.64,588c0.217,2.137-1.956,1.884-2.88,2.88c-0.029,1.729-0.75,2.769-0.96,4.319c3.184,2.613,5.631-1.235,8.4-1.92
		c0.41-1.751,1.69-3.637,0.96-5.76C294.61,586.567,292.124,587.45,290.64,588z"/>
	<path d="M345.6,597.6c0.025,2.271-1.137,4.207,0.721,5.28c1.457-0.304,2.918-0.602,4.56-0.721c0.349-1.768,0.855-4.134,0-5.76
		C349.171,595.46,346.82,596.612,345.6,597.6z"/>
	<path d="M164.16,626.4c-5.039-3.882-6.517,5.59-2.88,7.92c3.551,0.512,4.495-1.585,5.28-3.84
		C165.53,628.927,165.381,627.34,164.16,626.4z"/>
	<path d="M305.04,694.08c-5.048-0.716-5.316,7.907,0.24,5.761C306.327,698.647,306.346,694.984,305.04,694.08z"/>
	<path d="M556.561,709.92c-0.087,1.766,0.055,3.305,0.72,4.319c1.004,0.577,2.957,1.006,4.319,0.48
		c1.062-1.175,1.136-3.68,0.24-5.04C560.602,709.116,557.199,708.236,556.561,709.92z"/>
	<path d="M520.08,393.12c-1.42-0.58-2.699-1.301-4.32-1.68c-0.23-2.225-1.471-1.907-2.88-3.12c-0.696-0.599-0.945-1.592-1.44-1.92
		c-0.707-0.469-1.825-0.312-2.399-0.72c-0.955-0.679-2.809-3.124-2.88-4.08c-0.187-2.504,4.556-4.382,5.04-7.2
		c0.151-0.885,0.224-3.379-1.44-4.08c-2.807,0.38-1.449,7.367-4.8,6.96c-2.966-0.36-1.187-5.068-0.479-7.2
		c2.797-1.111,5.626-2.848,4.08-6.96c1.96-1.959,4.074-3.765,7.92-3.84c2.301,3.438-2.774,5.041-3.36,7.92
		c1.327,0.553,2.907-0.14,4.319-0.24c0.465-0.896,0.574-2.146,0.48-3.6c1.651-1.139,4.237-3.393,2.88-6
		c-4.331,0.842-6.692-1.513-8.88-3.36c-1.107-0.935-2.32-1.71-2.64-2.64c-1.177-3.426,2.198-5.776,2.399-9.6
		c-1.224-0.776-3.445-0.554-5.04-0.96c-1.225,0.375-1.079,2.121-2.159,2.64c-3.007,0.743-8.133,1.754-10.561-0.24
		c0.009-0.871-0.135-1.895,0.48-2.16c2.064-0.896,3.25,1.034,5.52,0.72c0.37-1.848-0.9-4.032-0.48-6.72
		c0.705-0.895,1.449-1.751,2.881-1.92c1.224-0.184,0.547,1.532,1.68,1.44c1.529-1.52,3.794-1.532,6.72-1.2
		c-0.192-2.032,0.706-2.974,0.96-4.56c-1.375-1.073-3.529-0.011-5.52-0.24c-1.031-0.329-0.913-1.808-1.92-2.16
		c-1.339,0.898-2.753,2.742-5.28,1.68c-0.639-2.269-2.441-4.377-3.36-6.96c-0.178-0.501,0.158-1.115,0-1.68
		c-0.095-0.34-0.988-0.931-1.199-1.68c-0.135-0.479,0.156-1.16,0-1.44c-0.537-0.955-1.435-1.024-1.681-1.92
		c-0.44-1.608-0.196-4.031,0.72-5.28c4.477-1.036,1.541,5.339,5.041,5.28c1.119-1.774-0.816-3.663-0.721-5.76
		c0.062-1.357,1.217-2.83,1.44-4.56c0.364-2.822-0.854-5.86,0.479-7.44c3.091-0.21,4.286,1.474,5.521,3.12
		c-0.23,1.77-1.157,2.843-0.96,5.04c-0.75,0.37-1.729,0.511-2.4,0.96c-0.965,1.775,0.118,3.709,1.68,4.32
		c0.876-1.285,2.707-1.613,4.561-1.92c0.687-3.251-1.07-7.884,0.72-10.8c-0.579-2.847-3.156-3.598-4.8-5.52
		c-0.188-0.22-0.072-0.977-0.24-1.2c-0.969-1.287-1.98-1.08-1.92-2.4c0.113-2.49,3.359-1.898,6-1.2
		c0.149-0.651,1.003-0.597,0.96-1.44c-1.335-4.884-13.384,1.225-14.64-3.6c-0.512-1.964,0.928-2.18,1.439-3.6
		c0.568-3.206-1.554-7.735,1.2-8.4c0.842-0.203,1.84,0.678,2.88,0.72c1.506,0.061,2.613-0.865,4.32-0.48
		c-0.34-2.311,0.215-4.043-0.96-5.52c-0.812,0.067-1.378,0.382-2.4,0.24c-1.767,5.387-9.198,2.428-13.439,1.2
		c-0.11-1.47,0.886-1.834,0.96-3.12c-4.101-1.117-9.42-2.237-8.16-7.92c4.221-0.74,8.404-1.516,10.8-4.08
		c-0.336-1.3-2.079-0.938-3.36-0.72c-0.762-1.238-1.831-2.168-3.359-2.64c-0.207-2.273-2.24-2.72-1.68-5.76
		c3.138-3.204,3.969,2.024,6.239,2.64c0.054-0.187,0.201-0.279,0.48-0.24c0.784-0.782-0.048-3.032,0.239-4.8
		c-0.48-0.959-1.862-1.018-2.159-2.16c0.558-4.392-0.247-10.186-4.32-7.68c-2.103,2.735,1.368,5.694,0,8.16c-0.56,0-1.12,0-1.68,0
		c0.14-2.703-2.623-3.697-3.36-5.76c-0.675-1.89,0.049-4.085-1.68-5.76c-0.978-0.302-2.528-0.031-2.88-0.96
		c-0.426-0.454-0.175-1.585-0.24-2.4c-0.817-1.023-1.739-1.941-3.601-1.92c-1.633,0.74-0.825,2.959-1.199,4.56
		c-1.27-0.011-2.709,0.148-3.12-0.72c0.301-3.033,0.269-6.706-2.88-6.96c-1.547,0.854-0.476,4.325-3.36,3.84
		c-3.657-4.903-4.59-12.53-7.44-18.24c-1.021-0.142-1.587,0.173-2.399,0.24c-0.505,0.615-0.729,1.51-0.96,2.4
		c-1.246,0.102-1.386,1.773-2.4,2.88c-0.324,0.354-1.07,0.351-1.439,0.72c-1.662,1.66-3.315,5.49-6,4.8
		c-3.025-0.778,0.879-5.852,2.64-5.76c1.135-3.105,2.948-5.532,6.479-6.24c-0.331-4.567,1.449-9.327,0.961-12.48
		c-2.707,0.416-2.604,4.642-6.24,3.36c-0.685-1.716-0.467-4.333-2.16-5.04c-1.306,2.051-3.863,2.216-6,0.72
		c-1.779,1.641-1.384,4.346-0.96,7.2c-0.568,0.632-0.953,1.447-1.92,1.68c-2.419-2.061-2.329-6.631-7.2-6.24
		c-1.507,0.573-1.447,2.713-1.92,4.32c-1.245,0.275-2.174,0.866-3.84,0.72c-1.506-1.615-3.038-3.202-3.6-5.76
		c-1.798,0.022-2.27-1.793-3.121-2.64c-0.659-0.656-1.887-0.893-2.399-1.44c-0.597-0.637-2.425-3.145-2.399-4.08
		c0.069-2.671,4.012-1.768,3.359-5.52c-2.368-0.608-6.625-1.178-8.64,0c-0.582,0.778-0.161,2.559-1.2,2.88
		c-1.336,0.768-3.564-0.732-4.08,0.96c3.962,3.07-1.281,10.383-5.52,8.88c-0.215-2.455,1.369-3.11,1.439-5.28
		c1.861-0.059,2.347-1.494,3.12-2.64c-1.097-1.703-1.163-4.438-1.2-7.2c0.887-0.634,2.359-0.681,3.36-1.2
		c0.423-1.657,1.481-2.679,2.64-3.6c0.025-3.905,1.812-7.293,2.4-9.84c-3.035-1.509-9.23-2.502-13.2-0.72
		c-2.002,0.898-2.948,2.285-5.04,2.4c-2.395,0.131-4.805-0.484-6.72-1.44c-0.452-2.772,1.298-3.342,0.96-6
		c-1.293,0.92-5.316,0.592-6.96,1.44c0.455,2.546,0.055,5.424-0.72,7.44c0.357,1.082,1.767,1.112,1.92,2.4
		c-1.825,1.695-4.081,2.959-7.2,3.36c-2.646-2.182-1.407-8.225,1.92-8.64c-0.36-2.153,1.337-3.146,0.72-4.8
		c-2.614-1.136-6.139-0.523-8.88,0c-1.044,1.817-0.305,5.217,0,7.2c-0.552,0.648-1.292,1.108-2.64,0.96
		c-0.695-1.606-3.791-2.774-5.521-1.2c-0.606,1.58,0.245,4.936,0,6.72c-3.062,1.597-5.813-0.558-7.2-2.16
		c0.193-2.513-1.143-3.497-1.92-5.04c-2.823-0.81-4.965-3.47-5.279-6c-0.58,0.861-1.361,1.519-2.881,1.44
		c-1.734-1.131-0.735-4.317-1.92-5.52c-2.01,1.83-1.824,5.855-3.119,8.4c0.389,0.664,2.102,0.993,2.159,2.4
		c0.119,2.887-3.595,1.738-6,2.4c-1.265,0.349-2.304,1.52-2.88,1.68c-0.599,0.167-1.517-0.086-2.16,0
		c-1.178,0.159-2.078,0.935-3.119,1.2c-1.5,0.382-2.961,0.156-4.08,0.72c-1.452,0.732-1.923,2.004-3.121,2.4
		c-2.588,0.856-2.751-1.373-3.359-2.4c-0.119,2.493-2.538,3.974-4.08,3.84c-3.192-0.277-3.112-6.368-5.76-7.2
		c-4.02-0.484-7.658-0.63-8.88-3.84c-0.659-1.732,0.004-3.967-1.2-5.76c1.979-1.381,2.361-4.359,4.56-5.52
		c-0.078-0.882,0.205-2.125-0.24-2.64c-1.257,0.022-2.161,0.399-3.6,0.24c-0.857-0.103-0.166-1.754-1.44-1.44
		c0.471,2.833-0.085,6.678,0.48,9.6c-2.102,0.619-3.672,1.768-6.48,1.68c-0.057-0.342-0.395-0.405-0.48-0.72
		c-0.65-2.57,1.679-2.161,1.44-4.32c-1.704-1.155-6.181,0.031-8.4-1.2c-0.111-1.371-0.896-3.09-2.16-1.92
		c0.261,1.272-0.896,3.41-0.479,4.8c0.816,0.543,2.151,0.569,3.12,0.96c0.909,1.971,2.847,2.914,5.04,3.6
		c2.038,3.882,4.637,7.203,10.32,7.44c-0.535,3.475-6.969,0.632-9.6,1.68c-1.004,0.757-2.588,0.933-4.08,1.2
		c-0.152,3.534-1.418,6.942-4.56,8.16c-1.238-0.922-0.712-3.607-0.96-5.52c-0.88-1.28-2.442-1.878-2.16-4.32
		c0.966-1.241,2.66-0.277,4.56-0.48c1.599-3.562-2.196-5.338-4.8-6.24c-0.905,0.615-0.249,2.792-1.2,3.36
		c-1.408,0.191-3.009,0.159-5.04,0.24c-1.833-1.687-4.236-2.804-5.28-5.28c-1.256,0.984-2.564,1.915-3.6,3.12
		c1.072,1.262,0.784,4.333-0.48,5.28c-5.507,0.657-10.232-4.917-5.28-8.16c-1.653-0.63-2.115-3.132-3.601-3.36
		c-2.283-0.35-4.204,4.506-7.92,3.6c-1.342,1.058-2.492,2.308-3.12,4.08c0.865,1.507,3.469,2.106,5.28,1.92
		c0.459-2.649,1.843-3.877,3.12-5.28c0.717-0.788,0.949-2.79,2.64-1.92c0.881,3.301-1.318,5.546-1.68,8.4
		c1.314,1.444,4.046,0.292,6,0.24c0.486,1.47,1.548,3.524,1.2,5.04c-4.049-0.991-10.365,0.285-12.48-2.64
		c-0.584,1.016-1.785,1.415-2.16,2.64c3.008,0.777,4.354,5.842-1.2,4.8c-1.17-0.869-0.958-3.02-2.641-2.88
		c-4.147,0.345,1.275,4.077,1.44,4.8c0.657,2.876-1.876,2.068-2.64,4.32c1.235,0.565,0.616,2.408,1.2,3.12
		c2.031,0.188,4.625-0.165,5.76,1.44c0.391,3.207,0.533,8.201-3.12,8.16c-1.539-0.701-1.259-3.222-1.681-5.04
		c-0.686-0.594-2.109-0.451-3.12-0.72c-1.049-2.69-3.699-4.023-2.64-8.16c-1.809-1.792-3.722-3.479-6.24-4.56
		c-0.729-2.927-1.462-7.494-4.8-6.48c-1.914,0.582-1.355,3.914-1.2,5.76c1.039,0.882,2.604,1.237,2.641,3.12
		c0.774,0.666,2.246,0.633,3.12,1.2c0.753,1.248,0.806,3.194,0.96,5.04c-0.301,1.22-1.633,1.407-1.44,3.12
		c1.596,1.258,3.75,0.08,4.32,2.16c0.571,2.085-1.572,4.786-2.88,6c3.096,2.368,1.295,6.533-2.16,6.48
		c-1.17-0.018-1.828-1.092-3.12-1.44c-0.371-0.1-1.027,0.28-1.44,0.24c-3.439-0.335-7.172-0.935-9.6,0
		c-0.534-0.586-0.879-1.361-0.72-2.64c2.887-0.747,4.647-3.053,8.399-1.68c0.737,0.624,0.514,2.206,1.44,2.64
		c0.96-1.2,3.153-1.167,2.88-3.6c-1.406-1.512-6.812,0.49-8.88-0.96c-0.587-1.678,1.254-1.446,1.2-2.4
		c-0.045-0.804-2.478-1.314-1.68-3.6c4.904-1.517,5.613,5.446,9.84,3.84c0.028-1.548-0.513-2.527-1.2-3.36
		c-0.983-0.233-1.538,0.594-2.16,0c-1.323-3.224,3.461-9.242-1.92-9.6c-0.942,1.221-0.622,2.337-1.92,3.12
		c-1.025,0.618-3.035-0.178-3.36,1.44c1.141,2.072-0.228,4.533-2.16,5.52c-0.108,2.025,0.523,4.943-0.96,6.24
		c-1.387,0.106-1.224-1.337-1.92-1.92c-2.861-0.699-6.584-5.938-1.92-7.2c0.148-5.198-4.604-6.385-7.44-3.12
		c-1.1,3.947,2.77,7.79-0.72,11.28c-1.392,0.111-2.522-0.038-3.12-0.72c-0.535-2.89-1.109-6.127-0.72-8.64
		c-1.044-0.254-3.512-0.043-4.8,0.24c0.348,1.332,2.331,1.028,2.88,2.16c-0.684,3.209-1.026,5.351-0.72,9.36
		c-1.211,1.989-2.815,3.585-2.88,6.72c-1.653,1.325-3.464,3.712-3.36,6c1.732,1.339,2.408-0.888,4.08-1.92
		c4.644-2.867,9.644,0.259,6.72,5.04c1.073,1.375,3.469,0.071,5.04,0.72c0.225,1.154,0.449,1.646,0.24,2.4
		c-1.801,6.503-10.316-6.099-12-0.48c1.302,2.231,2.331,10.158-0.72,10.56c-1.856,0.245-4.823-3.888-6-5.28
		c-1.268-1.5-3.87-3.232-3.36-5.76c0.425-2.11,4.44-2.238,1.68-4.8c-1.753,0.167-4.131,1.445-5.76,0.24
		c-0.728-2.205,0.239-4.693,0-7.2c2.434-1.546,5.076,1.764,7.68,1.44c0.772-0.096,2.327-0.714,2.4-1.92
		c0.086-1.42-1.667-1.422-2.4-2.64c-0.798-1.326,0.036-2.506-1.2-3.36c-2.7,0.18-4.721,1.039-6.72,1.92
		c-0.394,1.853-0.432,3.115,0,4.8c-2.91,0.93-3.635,4.045-5.04,6.48c2.614-0.294,2.146,2.494,3.6,3.36
		c0.515-0.685-0.16-2.56,1.2-2.4c2.39,2.138-0.808,5.103-2.16,6.48c-0.761,3.462,4.283,3.983,3.84,6.48
		c-0.118,0.665-2.326,2.042-3.601,2.4c-4.537,1.271-8.458-0.657-12-0.96c-0.155,1.915,2.354,3.396,3.36,5.28
		c0.199,0.373,0.184,1.083,0.48,1.439c0.922,1.112,2.672,1.359,2.88,2.88c0.332,2.428-2.045,4.432-1.68,7.68
		c-1.689,1.245-5.392,0.734-6.72-0.48c-0.239-1.199,0.745-1.175,0.72-2.16c-2.564-3.355-9.285-2.555-8.399-9.36
		c-3.418-1.586-5.238,2.172-6.72,4.08c1.235,1.005,3,1.48,4.32,2.4c0.106,1.414,0.724,2.316,0.48,4.08
		c-1.333,0.988-3.671,0.969-4.32,2.64c0.622,0.578,0.786,1.614,0.72,2.88c-2.699,1.617-6.017-1.984-8.88-0.24
		c0.232,1.624,0.373,3.451,0,5.04c-2.595,1.647-4.878,4.053-5.04,7.44c3.094,2.179,7.663-1.127,10.56,1.44
		c1.652,2.752-1.567,3.686-1.92,6c-0.268,1.76,1.3,3.86,1.68,6c0.829,4.67-1.022,6.122-2.64,8.64c-4.089,1.19-6.63-0.845-4.32-4.08
		c-1.364-1.061-3.754-2.293-6-1.68c-0.684,0.918,1.484,0.644,0.96,2.16c-0.683,0.357-1.644,0.437-2.16,0.96
		c-0.027,2.409-1.532,3.498-3.6,2.88c-1.29-0.386-1.13-2.317-2.4-2.4c-1.088,0.992-1.448,2.711-1.44,4.8
		c-1.597,0.958-5.217,2.932-6.96,1.44c-0.347-2.484,2.457-3.449,3.36-5.28c1.041-2.108,0.724-4.769,0.72-7.68
		c-1.102-0.961-2.345-0.62-2.64-1.92c-0.496-2.188,2.229-2.012,2.4-4.08c-2.142-0.352-2.768,2.811-5.52,2.64
		c-0.616,5.329-7.507,2.15-8.64-1.2c-0.613-1.812,0.218-3.246-0.96-4.561c-0.88,0-1.76,0-2.641,0
		c-0.838,3.017-0.984,5.287,2.16,5.76c1.685,2.66,1.369,9.704,5.28,9.12c1.928-0.288,0.84-2.8,3.6-2.64
		c3.41,4.977-2.901,7.343-3.36,11.52c-5.43,1.581-1.564,7.347,2.88,7.2c1.074-0.58,1.1-2.072,2.399-2.4
		c1.334-0.337,2.279,0.812,3.601,0.72c2.401-0.167,2.852-2.027,4.56-3.6c1.59,0.103,2.292-0.384,3.36,0.24
		c0.202,1.198-0.04,1.433,0,2.88c1.214,0.174,1.421-0.659,2.4-0.72c0.794,1.252,1.919,4.028,0.24,5.04
		c-1.243-0.037-2.805,0.245-3.12-0.72c-0.655-0.89,0.121-2.008,0-3.12c-0.747,0.133-1.563,0.196-2.16,0.48
		c-0.673,2.127-1.583,4.017-1.68,6.72c-1.322,0.598-2.577,1.263-2.88,2.88c2.321,2.801,7.939,5.499,12.48,3.12
		c0.083-2.985,5.983-2.935,5.28,0.72c-1.368,0.792-2.934,1.386-3.36,3.12c-1.568,0.992-3.043-0.104-4.8-0.24
		c-1.208,1.495-0.327,3.324-0.96,4.8c-1.012,2.361-3.994,2.406-6.96,2.88c-0.895,2.225-2.654,3.585-6,3.36
		c-1.151-0.528-1.005-2.354-1.92-3.12c-1.792-0.575-4.059-0.439-5.04,0.96c0.436,1.583,1.002,2.847,1.2,4.08
		c1.57,0.849,4.27-1.247,5.28,0.48c0.713,0.929-0.403,2.195,0.24,3.12c1.396-0.284,2.492-0.868,3.84-1.2
		c0.296-2.423,3.552-1.888,5.52-2.64c0.616-0.905,0.338-2.703,1.44-3.12c2.64,0.309,6.227-0.022,6.479,1.92
		c0.267,2.04-3.037,2.369-5.52,2.64c-1.867,1.733-3.787,3.413-4.561,6.24c-0.072,2.15-1.162,4.546-2.88,5.76
		c-1.535,0.016-0.607-2.433-1.439-3.12c-1.896-1.225-5.57-0.67-6.96-2.4c-0.276-0.992-0.276-1.888,0-2.88
		c-0.478-0.916-2.914-1.065-3.36,0c0.818,3.421,5.298,7.21,2.64,11.04c-1.133,0.633-2.497-0.31-4.08,0
		c-1.628,1.848-4.571,0.895-7.2,1.68c-0.877,2.643-4.845,2.195-4.8,5.76c0.772,0.348,1.345,0.895,2.16,1.2
		c1.089-1.071,2.431-1.89,3.84-2.64c0.153-5.513,7.012-4.561,7.2,0.24c2.892,0.709,3.795,3.406,5.76,5.04
		c-1.294,1.226-2.689,2.892-1.2,5.04c3.253,0.348,7.306,5.09,10.08,1.44c-0.89-1.19-2.896-1.263-2.4-3.84
		c1.465-0.924,4.23-1.595,6.48-0.96c0.689,0.911,0.872,2.328,1.68,3.12c3.779-0.341,5.069,4.09,1.44,4.8
		c-0.58,0.701-0.369,2.191-2.16,1.68c0.312-2.266-3.511-3.619-3.6-0.72c1.752,0.927,4.846,3.578,2.4,5.76
		c2.978-0.632,5.948-2.109,9.36-0.96c0.807,1.845,1.847,3.868,3.6,4.08c-1.037,0.884-1.822,2.018-3.12,2.64
		c-1.108-0.412-1.628-1.412-3.12-1.439c0.448,3.31-0.868,7.603-5.28,6.72c-0.103-1.978-1.514-2.646-1.68-4.561
		c0.864-1.375,2.395-2.085,3.36-3.359c-1.559-0.922-2.96-2.001-5.28-2.16c-0.22-0.74-0.454-1.466-0.96-1.92
		c-1.712-0.128-3.563-0.117-4.8-0.72c-0.195-1.646-0.929-2.752-2.88-2.641c-0.482,2.206-2,2.891-3.12,4.32
		c-2.143,2.735-3.003,6.235-6.72,6.72c-5.061,0.66-3.562-4.956-6-7.2c-1.556-1.432-4.323-1.426-5.28,0.48
		c0.517,2.044,3.013,1.328,3.359,3.12c0.372,1.917-3.09,3.515-1.92,6.239c1.079-0.753,4.586-2.21,7.44-1.199
		c0.638,0.562,0.729,1.671,0.96,2.64c1.166,1.233,4.283,0.517,4.08,3.12c-5.393,3.346-9.795-4.736-14.64-1.2
		c-0.113,3.073,0.712,5.208,2.88,6c1.54-2.193,6.737-1.468,6.24,1.92c2.705,0.415,3.532,2.708,6.24,3.12
		c0.426-0.454,0.175-1.585,0.24-2.4c2.819-1.45,6.045-0.037,6.24,2.641c1.544,0.152,3.717,0.638,4.56-0.48
		c-0.034-3.962,3.184-6.535,1.44-10.08c-1.863-1.017-4.028-1.732-3.84-4.8c-2.127-0.515-4.189-2.369-3.12-5.28
		c2.647-0.006,3.679,1.602,5.28,2.641c0.517,2.604,3.158,3.082,4.08,5.279c1.067,0.294,2.444,0.276,2.88,1.2
		c-0.499,1.615-0.266,2.475-0.24,4.561c-0.419,0.7-1.137,1.103-1.68,1.68c-0.324,2.956-1.37,5.19-2.88,6.96
		c0.802,1.438,2.907,1.573,2.64,4.08c-5.242,2.107-8.451-2.989-12.96-2.4c-0.814,0.626-0.996,1.885-1.68,2.641
		c-2.047,1.235-6.144,0.346-6.24,2.88c-0.049,1.298,2.465,2.439,2.16,4.56c-0.149,1.04-0.821,1.526-2.16,2.4
		c0.477,1.37,2.066,0.972,3.36,1.68c0.952,0.521,1.292,1.68,2.4,1.92c1.756,0.381,3.804-0.754,6.24-0.239
		c1.496,2.823,7.371,1.269,8.4,4.56c-0.339,1.379-2.288-0.128-2.4,1.2c-0.319,2.321,2.749,3.329,4.32,4.56
		c-0.126,1.993,1.11,2.524,2.16,3.84c1.882-1.287,3.153,1.021,4.8,1.44c0.983-0.058,0.443-1.637,1.92-1.2
		c-0.204,1.796-1.088,2.912-1.68,4.32c-2.063,0.177-3.228,1.252-5.76,0.96c-0.943-0.417-0.459-2.261-1.2-2.88
		c-2.833-0.354-2.288,2.672-3.12,4.32c1.768,3.953,3.734,11-1.68,12.239c-1.418,2.661-1.709,6.45-3.6,8.641
		c-2.388,0.412-5.513,0.087-6.72,1.68c-0.919,2.757,1.269,4.058,1.2,6.72c3.102,0.098,2.165,4.235,4.8,4.8
		c5.225-0.778,12.26-1.249,17.04,0.24c-0.73,4.521-5.012,3.652-9.36,3.12c-0.667,1.238-1.547,3.928-0.24,5.04
		c1.383,0.606,4.264-1.005,5.52,0.24c1.287,1.356-1.45,2.878-0.48,3.12c1.686,0.504,4.435,1.125,6.48,0.479
		c0.935-0.985-0.223-4.063,1.68-4.08c1.99,1.168,4.549,0.94,6.72,0c-1.438-2.622,2.868-2.855,2.4-0.239
		c1.839,0.973,4.352,0.758,4.8,2.64c0.402,1.688-1.307,2.909-0.96,4.8c-0.932,0.508-2.203,0.677-2.88,1.44
		c3.846,0.395,6.463,2.017,9.36,3.359c-0.322,1.918-0.793,3.688-1.68,5.04c-2.631-0.002-4.401-1.452-6.48-0.72
		c0.299,2.821,3.388,2.853,3.36,6c0.668,0.53,1.988,0.869,2.88,0.479c0.672-0.743-0.033-1.576,0.72-2.399
		c4.01,0,8.406-7.934,10.08-0.72c-1.73,1.87-2.516,4.685-6,4.8c-1.032,1.368-2.003,2.797-2.4,4.8
		c-0.932,0.588-2.247,0.793-3.12,1.439c0.949,2.731,4.929,2.432,4.32,6.721c-0.765,1.269-3.353,1.882-5.28,1.2
		c-0.205-0.906,0.797-1.127,0.24-1.681c-1.196-1.363-4.227-0.894-6.72-0.96c0.204,3.316,3.726,3.314,4.08,6.48
		c2.517,0.783,6.277-0.128,7.439-2.16c1.652-0.429,3.489-0.672,4.32-1.92c0.018-1.662-0.612-3.158,0.48-4.08
		c2.218,0.066,2.4,1.882,4.8,1.2c0.585,0.614,0.5,1.899,0.479,3.12c-0.422,0.698-1.978,0.262-2.399,0.96
		c0.128,2.288-1.341,2.979-2.641,3.84c1.791,6.404,11.826,3.08,16.561,6.479c1.07,1.509,0.75,5.296,3.12,5.04
		c2.066-0.223,1.301-3.983,4.8-2.88c3.213,1.014-0.291,6.286,3.12,7.92c1.583-1.485,3.582-0.389,5.04-0.239
		c1.244-1.396,1.125-4.155,3.12-4.801c1.046,0.007,2.223,0.144,2.64-0.479c-0.16-3.36-4.538-2.503-5.76-4.8
		c-0.443,0.482-1.3,1.404-2.16,0.72c0.001-0.134-0.194-0.272-0.24,0c0.987,1.714-2.821,1.971-4.08,1.44
		c-0.26-1.541,0.74-1.82,0.48-3.36c-0.909-0.969-2.375-2.533-1.92-4.08c2.21,1.292,6.002,0.23,7.44,2.64
		c1.461-0.618,2.997-1.163,4.32-1.92c-0.04-1.329,1.416-2.258,2.16-3.84c1.044-2.222,1.131-5.191,4.56-4.561
		c0.844,0.836,1.121,2.24,0.96,4.08c-4.26,0.86-3.131,7.109-6,9.36c3.038,1.796,5.729-0.313,8.16-1.2
		c0.54,1.841-1.654,2.367-2.16,3.84c-0.882,2.567,0.498,5.252-0.24,8.16c-5.951,0.45-1.794,11.006-9.6,9.601
		c-0.451-0.35-0.029-1.571-0.48-1.92c-3.938-0.685-8.007,0.524-11.04-1.681c0.5-2.477,1.843-5.496-0.72-6.72
		c-0.079,3.686-10.643,2.717-9.6,6.479c0.51,1.84,3.801,0.837,6,1.44c0.386,0.574,0.79,1.13,0.72,2.16
		c2.443,0.117,2.032,3.088,4.32,3.36c1.229-0.451,1.065-2.295,1.439-3.601c3.444-2.579,8.035-0.142,8.16,4.08
		c2.101,0.825,4.226-0.287,6.24,0c1.718,0.245,2.672,1.844,4.08,1.44c2.266-2.678-1.528-4.439-0.96-6.721
		c0.375-1.507,2.733-1.607,3.6-3.119c0.13-1.471,0.045-3.155,0.96-3.841c3.217,0.405,4.944-2.095,6.72-2.88
		c3.181-1.405,8.744-1.963,9.84,1.92c2.863,2.224,6.408,1.789,10.32,0.96c0.4-0.896,0.626-3.184,2.4-3.84
		c0.641-0.237,1.889,0.216,2.64,0c2.22-0.636,2.033-3.268,3.84-3.12c1.293,0.105,2.153,1.762,1.92,3.12
		c-0.215,1.256-2.066,1.856-2.16,2.88c-0.93,0.21-0.393-1.048-1.44-0.72c2.121,2.829,0.293,7.047-1.2,9.12
		c-1.986,0.227-2.894-0.626-3.12-2.16c0.106-0.934,1.097-0.982,1.68-1.439c-0.355-1.645-0.41-3.591-2.4-3.601
		c-0.836,1.964-2.833,2.767-3.36,5.04c0.913,1.072,2.277,0.422,2.64,1.68c0.368,1.275-2.873,5.174-5.04,4.801
		c-1.954-0.337-1.549-2.21-2.16-4.801c-2.084-0.155-2.407-2.072-2.88-3.84c-1.283-0.246-3.703,0.024-4.8,0.721
		c-0.451,2.529,3.372,5.342,2.4,8.159c-0.327,0.946-2.778,2.421-4.08,0.721c-0.381-1.307,0.833-1.872,0.24-2.641
		c-0.746-0.383-2.854-0.383-3.6,0c0.252,1.07,1.805,2.804,1.68,5.04c5.358,2.209,10.75,0.176,16.32-0.479
		c1.746,4.272,7.5-0.769,10.8,1.68c3.185-3.491,1.197-8.595,1.68-12.96c1.803-0.481,4.405,0.204,5.04,1.68
		c-0.098,3.119-5.279,7.346,0,8.16c1.429,2.972,3.559,5.242,5.521,7.68c2.596-0.764,4.353-2.367,5.52-4.56
		c1.757,0.323,4.351-0.19,4.32,1.92c-2.009,1.352-3.626,3.094-3.36,6.72c-0.615,0.505-1.51,0.73-2.399,0.961
		c2.419,1.976-0.009,3.863-0.48,6.239c2.773-0.106,4.104-1.655,4.8-3.84c-0.125-0.995-1.211-1.028-0.96-2.399
		c2-0.478,3.719-3.327,5.76-2.641c2.38,0.801,0.521,5.182,1.44,7.92c-1.651,2.029-6.451,0.908-7.92,3.12
		c1.857,1.184,4.69,1.39,7.2,1.92c0.314,1.955,0.127,3.027,0.48,5.04c-2.457,3.828-4.55,9.049-3.36,15.12
		c2.594,1.587,6.482,4.508,10.8,3.6c2.116-0.444,2.538-2.679,4.56-3.359c0.25-0.55,0.152-1.448,0.48-1.92
		c1.937-1.685,4.282-2.42,5.52-5.04c1.977-4.186-0.109-10.956,4.8-12.48c-0.173-1.427-1.502-1.697-1.2-3.6
		c3.008-1.371,3.678-5.037,3.6-8.88c1.749-0.892,3.389-1.892,6-1.921c2.868,4.973,6.806,8.875,7.2,16.32
		c-2.45,1.451-7.348,0.956-6.72,4.561c0.263,1.509,2.508,3.099,5.28,2.88c0.613-1.547,1.828-2.492,3.36-3.12
		c0.905-3.381,1.146-9.167,0-12.48c0.56-0.88,1.809-1.071,2.16-2.16c-0.018-1.021-0.401-1.678-0.24-2.879
		c1.877-1.199,2.555-3.883,5.28-3.121c2.539,0.71,3.771,8.606,8.88,4.801c0.832-3.372,0.771-8.929,0-12.721
		c-3.834-0.597-7.065,1.387-11.28,1.2c-1.462-1.092-0.4-3.67,0.24-4.8c-0.729-0.791-0.784-2.256-0.96-3.6
		c-3.163-1.134-4.099-5.693-0.479-6.96c4.457,0.217,1.869,4.833,0.72,6.72c1.257,1.143,2.835,1.965,4.56,2.64
		c-0.23,1.431,0.445,1.955,0.96,2.641c0.86-0.341,2.349-0.052,3.12-0.48c0.89-1.605,0.574-3.618,0.48-5.76
		c0.48-0.719,1.97-0.43,3.119-0.48c1.15,1.411,0.988,4.133,1.44,6.24c6.005-0.325,5.343,6.018,10.56,6.48
		c1.338-0.823,0.331-3.99,0.961-5.521c1.617-1.633,5.646-3.977,8.64-1.92c0.119,1.959-0.804,2.877-1.92,3.6
		c0.579,0.781,0.314,2.406,0.72,3.36c0.859,0.593,2.072,0.542,3.12,0.24c0.854-0.246,4.286-2.896,4.8-3.36
		c0.945-0.851,0.622-1.924,1.92-1.92c1.08,0.004,1.973,0.721,1.68,2.641c-0.555,0.404-1.841,0.078-2.159,0.72
		c0.366,1.671-2.065,2.55-2.16,4.08c-0.206,3.32,4.215,2.571,5.28,0.479c0.173-1.626-0.461-2.568,0-3.84
		c3.314-0.24,2.414-3.651,3.119-6.24c0.519-1.898,1.9-2.031,3.36-3.359c0.933-0.849,1.214-1.927,2.16-2.16
		c2.347-0.579,4.69,1.241,6,1.68c2.444,0.819,3.48,0.961,3.36,3.84c-2.603,0.877-5.764-0.671-7.92-0.24
		c-1.221,1.006-0.87,3.034-0.24,4.561c2.132,0.691,3.791,0.243,6,0c0.614,2.985,0.967,6.233,5.04,5.76
		c3.042,6.145,1.56,14.34,1.439,22.801c-0.539,0.74-1.179,1.38-1.92,1.92c0.02,2.906-1.925,3.83-2.88,6.239
		c-0.322,0.814-0.096,1.536-0.48,2.16c-1.02,1.658-3.369,3.055-2.879,6c-1.441,2.318-2.747,4.773-2.881,8.4
		c0.379,0.901,1.136,1.425,1.44,2.399c-0.339,3.336,1.204,3.895,2.399,6.24c0.259,0.507,0.01,1.188,0.24,1.68
		c0.297,0.633,1.183,1.003,1.44,1.681c0.665,1.747,1.214,1.697,1.68,2.88c0.188,0.479-0.054,1.123,0.24,1.92
		c0.642,1.738,1.972,3.376,2.64,5.04c1.272,3.169,0.059,5.192-0.24,7.439c-0.299,2.258,0.57,3.646,0.721,5.04
		c0.316,2.932-1.327,5.065-1.44,8.4c-2.095,3.105-2.241,8.158-4.56,11.04c0.588,8.631,0.332,14.886,0,23.76
		c2.348,2.325,0.312,5.331,0.479,7.92c0.093,1.434,1.538,2.812,1.681,4.32c0.131,1.382-0.616,2.849-0.48,4.08
		c0.23,2.087,2.336,3.505,1.92,5.76c0.828,0.853,2.191,1.169,3.36,1.68c2.045,4.104,8.031,7.773,13.92,5.04
		c0.63-1.69,1.207-3.433,3.6-3.359c0.24-2.012,0.776-3.532,0.72-5.04c-0.123-3.316-2.221-5.635-3.119-7.681
		c-1.703-3.878-0.415-8.867,0-12.72c0.192-1.787-0.047-3.476,0.24-4.8c0.607-2.812,2.337-5.487,2.64-8.4
		c0.383-3.687-0.3-7.171,0.479-11.04c1.268-1.532,1.803-3.798,2.16-6.239c4.648-3.916,8.019-9.83,6.96-18.721
		c-0.663-0.855-2.49-0.549-2.88-1.68c-0.259-1.558-0.139-2.986-0.72-4.32c-1.021-2.343-3.832-4.236-4.32-6.239
		c-1.146-4.705,0.26-9.039,0.72-13.681c2.851-1.997,1.765-5.951,2.641-9.84c0.6-2.663,2.366-6.253,4.08-7.68
		c2.583-7.327-1.898-14.225-1.44-20.88c0.065-0.94,0.645-1.949,0.48-2.88c-0.272-1.547-2.345-3.182-2.88-5.04
		c-0.864-3-1.062-5.36-1.44-8.16c0.94-0.899,2.483-1.197,3.12-2.4c-0.283-1.022,0.098-2.741-0.48-3.84
		c-0.539-1.025-1.594-0.948-2.399-1.68c-0.829-0.754-2.707-2.483-3.12-3.601c-0.473-1.28,0.111-2.794,0-4.319
		c-0.216-2.949-0.318-3.765,0.48-7.2c0.82-0.459,2.168-0.392,2.399-1.44c-0.537-1.405-3.691-3.138-1.44-5.04
		c2.938,0.845,4.771,0.046,7.2-0.72c1.514-2.967,4.78-4.18,8.64-4.8c1.166-0.755,1.725-2.117,2.4-3.36
		c-4.765-2.613-0.021-8.069,4.08-8.16c0.309,2.149-1.488,2.192-1.68,3.841c1.67,0.633,3.611-0.117,5.04-0.48
		c0.263-0.359-1.642-1.863-0.72-2.88c1.367-0.577,2.501,0.967,3.6,1.439c1.428-0.412,2.658-1.021,4.08-1.439
		c-0.708-2.534-0.299-7.065,3.6-6.48c0.883,4.014,1.566,8.978,5.04,11.04c0.185,1.496,1.543,1.817,1.92,3.12c0,0.72,0,1.44,0,2.16
		c0.98,0.7,1.347,2.014,2.88,2.16c1.016-1.096,2.762-2.636,2.641-4.08c-1.715-1.325-3.694-2.386-5.521-3.601
		c-1.198-2.754,1.153-3.94,0.96-6.479c0.729-0.871,2.105-1.095,3.84-0.96c2.069,2.57,5.225,4.056,10.08,3.84
		c0.465-2.489-1.771-5.142,0-7.68c-0.48-1.753-3.03-1.609-4.8-2.4c-1.04-0.465-1.531-1.545-2.64-1.68
		c-1.438-0.175-2.476,0.867-4.08,0.72c-1.531-3.055,2.363-5.67,5.76-4.56c0.682,0.519,0.313,2.086,1.68,1.92
		c1.271-1.289,1.941-3.18,4.08-3.601c0.695-1.064-0.065-3.585,1.44-3.84c1.204,0.446,1.05,1.526,2.399,1.92
		c1.866,0.545,4.667-0.854,6,0.96c1.721-1.11,4.927-1.764,3.601-4.319c-1.442-2.78-9.269-0.401-10.08-4.08
		c0.621-2.339,3.836-2.084,6.479-2.4c0.707-4.093,2.404-7.196,6.961-7.439c-0.053-2.053,0.38-6.603-1.44-7.681
		c-1.141,1.098-0.739,2.65-2.16,2.88c-1.815,0.294-1.657-1.343-2.64-3.12c-1.361-2.462-5.135-4.111-3.12-7.199
		c1.03-0.43,2.817-0.296,3.6,0.24c0.447,0.96,0.366,1.518,0.48,2.399c1.384,0.61,3.021-0.026,4.319-0.24
		c-0.113-0.913,0.103-1.498,0.721-1.68c0.56,0,1.12,0,1.68,0c2.025,4.525,7.771,6.371,8.16,11.76c6.934,1.875,3.02-5.027,3.359-8.64
		c0.674-0.287,1.656-0.264,2.641-0.24c0.875,1.045,0.713,3.127,0.72,5.04c0.788,0.893,1.734,1.626,2.88,2.16
		c4.097-1.071,7.229-5.389,5.28-10.32c-3.388,1.142-7.583-1.032-10.319,0c-1.276,0.481-1.236,1.891-2.641,2.4
		c-0.98-0.252-1.693,0.118-3.12,0c-0.437-1.284-1.091-3.22-0.479-4.8c-2.121-1.983-5.384-5.305-3.84-9.36
		c1.571,0.14,4.493,0.923,6.959,0.96c-1.231,5.396,1.652,7.67,5.28,8.88c4.567-1.609-0.562-7.245,1.681-10.319
		c1.767-0.283,4.441-0.325,6.72,0c1.106,3.845,5.601,0.946,4.56-2.4c-0.211-0.682-1.398-1.435-1.92-2.4
		c-1.545-2.862-2.022-6.758-2.88-8.399c-0.976-0.515-2.062-0.086-2.88,0.239c0.146,0.975,0.736,1.504,0.48,2.881
		c-3.812,1.387-4.43,5.971-9.841,5.76c-0.016,1.216,0.413,1.987,0.24,3.359c-1.235,1.285-3.758,0.465-5.521,0.24
		c-1.994-4.646-7.6-5.68-7.68-12.24c1.844-0.688,2.781-4.667,5.28-3.119c-1.05,2.464-1.908,6.311,0.479,7.92
		c0.561,0,1.121,0,1.681,0c0.984-2.056,3.593-2.488,4.56-4.561c-1.82-0.818-1.271-4.008-1.68-6.24
		c1.953-2.687,3.227-6.054,4.8-9.119c-1.372-0.912-2.844-2.071-2.399-3.841c0.799-3.183,6.801,0.279,9.6-1.439
		c0.418-1.958,2.832-2.519,2.88-4.08c0.045-1.481-2.042-1.446-1.44-3.601c0.454-0.026,0.167-0.793,0.721-0.72
		c0.479,0,0.96,0,1.439,0c1.058,2.72,5.862,3.66,6.24-0.239c0.937-0.984,3.053-0.788,3.12-2.641c-3.046-1.514-3.301-5.819-5.04-8.64
		c-1.858,0.019-4.613,2.035-6,0.239c0.855-4.748,7.41-2.373,11.52-2.64c0.409,0.712,0.611,1.63,0.48,2.88
		c0.592,1.168,2.438,1.082,2.4,2.88c1.009,0.671,2.49,0.87,3.119,1.921c0.232,1.719,0.117,2.545,0,4.319
		c1.741,1.392,7.055,1.244,9.841,0.48C520.901,398.219,520.771,395.389,520.08,393.12z M102.24,384.72
		c-1.122,0.818-3.767,1.344-4.8,0.239c1.461-2.613,0.089-5.182,0.72-8.399c0.705-0.438,1.981-0.678,2.88-0.24
		C101.602,378.958,102.562,381.199,102.24,384.72z M117.36,416.16c-0.996-0.443-1.77-1.11-2.4-1.92
		C115.083,407.23,122.101,413.442,117.36,416.16z M117.6,405.36c0.289,2.129-0.943,2.737-1.68,3.84
		c-1.877-0.908-3.158,0.401-3.84,1.44c-2.095,0.174-3.202-0.638-3.12-2.64c0.49-0.873,1.592-0.045,2.16-0.48
		c0.264-2.376,2.772-2.508,2.88-5.04c3.021-0.196,4.511-4.887,7.44-2.88C121.297,402.658,119.461,404.021,117.6,405.36z
		 M133.44,309.84c0,0.72,0,1.44,0,2.16c-0.848,0.912-3.119,0.402-4.08,1.2c-0.068,0.731,0.769,0.934,0.24,1.44
		c-1.059-0.622-0.965-2.395-1.92-3.12C126.89,308.123,132.183,308.347,133.44,309.84z M124.08,302.64
		c-1.411,0.051-2.572-0.148-3.6-0.48c-1.499,0.073-1.972,2.278-3.12,1.92c-0.875-0.654-0.416-2.365,0.24-2.88
		c6.828,1.227,3.642-6.706,5.04-9.84c1.552,1.188,3.859-0.19,5.04,0C128.739,295.622,125.931,299.734,124.08,302.64z M128.88,421.92
		c0.557-0.554-0.444-0.774-0.24-1.681c1.89-0.456,3.493-3.727,5.28-1.439c-0.13,3.63-2.418,5.102-5.04,6.239
		c-1.518-0.562-3.169-0.99-3.84-2.399C125.283,420.564,127.795,422.769,128.88,421.92z M118.32,453.12
		c-1.152-0.207-2.49-0.23-3.12-0.96c-0.126-3.357,2.103-6.269,5.28-4.8c1.583-0.748,3.339-1.873,4.56,0
		c-0.209,1.791-0.931,3.069-1.44,4.561C121.185,452.034,118.938,451.044,118.32,453.12z M125.04,457.92
		c-0.936,0.584-0.581,2.458-0.96,3.6c-0.84,0.848-3.691,1.559-4.56,0.24c-0.55-0.981,0.547-2.093,0.72-3.12
		c-0.324-1.11-1.277-2.497-0.24-3.601c1.859-0.04,2.758,1.578,4.8,1.681c2.878,0.145,6.91-2.563,8.88,0.239
		C131.558,459.641,127.722,458.285,125.04,457.92z M129.12,467.76c0.112-1.567,1.982-1.378,2.4-2.641
		c-1.013-2.277,0.739-4.114,2.64-2.64C135.496,466.023,131.862,470.573,129.12,467.76z M131.04,298.8
		c-0.618-2.725,2.631-4.093,3.84-2.16C135.065,298.695,132.615,300.03,131.04,298.8z M168,235.2
		c-2.231,0.312-3.268-0.572-3.36-2.399C166.071,230.108,170.491,232.691,168,235.2z M167.76,491.76c0.149,1.552,0.904,3.882,0,5.04
		c-2.334-1.026-4.69-2.029-5.28-4.8C163.31,490.109,166.26,491.059,167.76,491.76z M140.16,276.96
		c-1.392,0.112-2.523-0.038-3.12-0.72c0.72-1.987,0.36-4.574-0.48-5.28c0.874-0.443,2.939-0.3,3.84,0
		C140.297,272.658,141.461,275.55,140.16,276.96z M143.76,254.88c-2.158-0.562-3.859-1.581-5.52-2.64
		c1.101-1.219,2.377-2.263,2.88-4.08c2.889-0.199,3.775-4.527,7.44-2.4C148.748,250.588,145.011,251.491,143.76,254.88z
		 M149.76,276.96c-3.613,0.958-2.994-7.864,0.72-4.56C150.893,274.195,151.326,276.545,149.76,276.96z M152.64,266.4
		c-0.929,1.084-2.561,1.528-3.6,1.44c-0.461-0.659-0.917-1.323-0.96-2.4c0.255-0.785,1.451-0.629,1.68-1.44
		c0.161-1.361-0.539-1.861-0.72-2.88c2.22-1.499,5.77-0.848,5.76,1.44c-0.004,0.924-0.941,0.887-1.68,2.16
		C152.882,265.131,152.862,266.141,152.64,266.4z M161.28,476.4c-1.937,2.058-6.296,0.514-7.92-1.2
		c0.115-3.486,3.421-4.736,6.72-3.12C160.576,473.423,161.525,474.315,161.28,476.4z M162.48,503.28
		c-0.141-1.818,2.151-2.488,4.08-1.439C167.332,505.718,162.658,505.573,162.48,503.28z M164.16,516
		c-0.117-1.408-1.493-2.822-0.72-4.32c0.662-1.475,3.798-0.443,5.28-0.48c0.575,1.666,1.97,2.511,1.92,4.801
		C168.765,516.941,166.348,515.934,164.16,516z M168.24,247.92c-1.202-0.617-1.179-3.142-0.48-4.32c-0.832-1.808-1.597-3.683-1.92-6
		c0.529-1.114,3.278-1.314,4.32-0.48c0.557,3.147-2.156,6.779,1.2,8.4C170.792,246.792,169.789,247.629,168.24,247.92z
		 M184.8,225.36c-0.224-2.063,0.614-3.066,1.2-4.32c1.704,0.136,2.188,1.493,3.36,2.16c0.062,2.223-0.376,3.945-0.96,5.521
		C186.124,228.676,186.926,225.554,184.8,225.36z M196.8,243.84c-0.584,0.805-2.55,1.007-3.36,0.24
		c0.128-1.072,0.722-1.678,0.48-3.12c-1.52-0.806-1.716,1.158-2.88,1.44c-2.013,0.127-2.373-2.978-1.44-4.32
		c2.641,0.943,3.153-2.223,5.04-1.44C196.257,237.311,196.874,240.525,196.8,243.84z M198.48,203.04
		c-1.004,0.436-2.792,0.088-3.6,0.72c-0.313,0.566-0.102,1.658-0.48,2.16c-1.053,0.75-4.333,0.814-4.8-0.48
		c1.716-2.735,4.362-7.664,8.64-5.52C198.21,201.009,199.082,202.14,198.48,203.04z M224.4,506.4c-1.124-0.029,0.261-0.349,0-0.96
		c-0.466-0.733-1.434-0.966-2.64-0.96c-0.278-1.241-1.053-1.986-1.68-2.88c0.162-1.278,1.77-1.11,2.16-2.16
		c-1.471,0.148-3.328-2.812-0.96-3.84c1.632,0.208,2.81,0.87,3.6,1.92c0.315-0.085,0.378-0.423,0.72-0.48
		c-0.856-1.211-0.867-3.003,1.2-2.159C228.334,498.218,227.836,505.997,224.4,506.4z M244.32,189.36
		c-0.942-0.258-1.098-1.302-1.92-1.68c-2.442,0.645-6.662,0.121-4.8-2.64c1.993-2.955,7.798,1.5,9.12,2.88
		C246.633,189.113,245.285,189.045,244.32,189.36z M253.2,543.36c-0.458,0.797,0.075,1.989-1.2,2.4
		c-2.981,0.959-4.283-2.872-3.12-5.76c0.492-0.709,1.15-1.251,1.92-1.681c-0.626-4.198,3.774-2.519,5.76-1.68
		c0.583,1.177,1.356,2.163,1.44,3.84C256.587,541.324,254.127,541.746,253.2,543.36z M264.96,180.24
		c-2.944,0.385-2.386-2.734-2.88-4.8c-0.764-1.396-2.86-1.46-3.84-2.64c0.356-4.209,4.844-2.303,4.32,1.439
		C264.183,175.278,265.338,177.994,264.96,180.24z M289.2,553.92c-1.406,0.045-2.04-0.681-2.64-1.44
		c-0.037-2.638,2.286-5.237,4.56-3.36C291.262,551.502,290.34,552.82,289.2,553.92z M292.08,185.52
		c-1.347,1.341-3.991,0.316-5.04-0.72c-3.342-0.178-7.443,0.403-8.88-1.68c1.288-1.272,3.902-1.217,3.6-4.08
		c-0.907-1.493-3.886-0.914-4.56-2.64c0.322-1.757,1.814-2.346,2.16-4.08c2.124,0.597,3.569,1.872,4.32,3.84
		c-0.088,1.111-0.896,1.504-0.72,2.88c1.278,1.921,3.771,2.629,5.04,4.56c1.502,0.142,0.87-1.851,1.92-2.16
		c2.262-0.262,1.889,2.111,2.4,3.6C292.087,185.046,292.134,185.333,292.08,185.52z M292.8,546.72
		c0.219-1.621,1.008-2.673,1.68-3.84c1.993-0.106,4.991-1.142,6,0.479C299.303,545.903,295.463,549.997,292.8,546.72z
		 M323.04,178.32c-1.339,0.93-3.111,2.612-5.28,1.92c0.207-1.712,1.025-2.814,0.96-4.8c3.237,0.224,3.165-4.97,6.24-3.36
		c-1.354,1.624,1.497,2.391,1.44,3.84C326.345,177.318,324.82,177.812,323.04,178.32z M338.64,539.04
		c-2.696-0.183-2.42-3.339-5.52-3.119c-1.005-1.476-2.075-2.885-2.64-4.801c-0.523-0.272-1.411,1.142-2.881,0.721
		c-0.692-2.519,1.728-7.845,3.84-5.28c0.057,1.176-0.422,1.817-0.239,3.12c1.425,0.044,2.834-0.59,4.08,0
		c0.644,1.597,0.795,3.685,1.439,5.279C338.385,535.33,339.961,537.122,338.64,539.04z M343.2,547.2
		c-2.027-1.253-3.294-3.266-3.841-6c1.67-1,6.332-2.126,7.201,0.24c1.029-0.029,2.464-0.598,3.359,0
		C349.499,545.179,345.25,545.09,343.2,547.2z M349.68,179.76c-4.182,0.458-8.635,0.645-12.96,0.96
		c-0.255-2.145-1.635-3.165-3.36-3.84c-0.472-0.835,0.048-2.423,0.48-3.12c5.73,0.948,12.413,0.608,17.52,1.68
		C351.064,177.145,349.916,177.996,349.68,179.76z M368.88,536.88c-2.231-1.913-5.529,0.146-7.68-1.681
		c0.552-2.98-0.436-7.369,3.12-6.72c0.617,1.142-0.279,3.799,0.96,4.32c1.982,0.124,4.139-0.801,5.28,0.479
		C370.946,534.531,369.837,536.189,368.88,536.88z M380.88,186.96c-0.796,0.884-2.289,1.071-2.399,2.64
		c-1.178,0.176-2.239,0.373-3.36,0c-0.387-2.387,1.569-2.43,1.68-4.32c-2.366-1.608-3.33,4.274-6.479,1.92
		c-0.203-1.743,1.178-3.709,3.359-3.84c2.888-2.511-0.23-5.925-0.72-8.64c3.651-3.494,4.718,2.624,7.44,3.12
		C380.998,180.933,381.624,183.468,380.88,186.96z M381.12,176.88c0.089-1.67-0.222-3.741,0.239-5.04c0.16,0,0.32,0,0.48,0
		c1.65,0.75,1.976,2.825,2.16,5.04C383.48,177.633,381.695,177.437,381.12,176.88z M403.439,512.88
		c-1.104,1.065-3.145-0.277-4.08,0.96c-1.573-0.267-1.79-1.89-3.359-2.16c0.333-1.188,1.113-1.928,1.439-3.12
		c-1.529-0.87-3.361-1.438-5.279-1.92c0.185-1.146-0.855-1.065-0.721-2.16c0.721-0.545,2.141-0.186,2.4,0.479
		c2.627-0.413,3.338-2.742,5.52-3.6c0.714,0.486,0.778,1.623,1.44,2.16c0.815,0.065,1.946-0.186,2.4,0.24
		C404.558,506.965,403.006,509.676,403.439,512.88z M416.16,480.959c-0.256-1-0.062-1.059,0-2.159
		C421.365,475.457,421.577,484.409,416.16,480.959z M426.48,218.88c-1.463-0.13-2.073-1.689-3.36-1.44
		c-0.491-0.892,0.084-1.508,0.239-2.4c0.4,0,0.801,0,1.201,0c0.328-2.173-0.236-4.756,2.159-5.28c0.951,0.169,0.911,1.329,2.4,0.96
		c1.46,2.13-0.838,6.191,2.64,6C430.402,217.472,428.308,219.043,426.48,218.88z M431.28,205.68c-1.134-1.836-1.256-5.193,0-6.96
		c2.017,0.703,4.523,0.916,6.239,1.92c-0.209,1.809-0.34,3.509,0,5.28C436.063,206.673,432.434,206.687,431.28,205.68z
		 M445.2,215.04c1.531,0.069,2.113,1.086,2.88,1.92c-0.003,1.215,0.815,4.846-0.48,6c-1.45,0.09-2.43-0.29-3.119-0.96
		C444.834,219.269,444.481,217.163,445.2,215.04z M445.92,486.72c-2.615,0.744-2.848,3.872-6.24,3.84
		c-1.337-2.329-2.698-9.96,2.641-8.16c0.46,1.54,2.132,1.868,3.6,2.4C445.92,485.44,445.92,486.08,445.92,486.72z M448.561,465.84
		c-0.045,0.204,0.093,0.227,0.239,0.239c-3.645,0.971-6.904-3.899-3.6-6.479c0.896-0.385,2.329-0.23,3.36-0.48
		C450.897,460.687,449.031,463.679,448.561,465.84z M486.48,271.44c2.779,0.196,4.161,7.406,1.439,8.16
		c-2.652,0.735-2.706-4.125-4.08-5.04C484.656,272.57,485.023,271.337,486.48,271.44z M488.88,286.8c-0.393,1.98,1.155,3.239,0,4.56
		c-0.388,0.392-1.004-0.214-1.92,0c0.634,1.406-0.321,2.604,0,3.6c0.438,1.361,2.511,1.329,1.92,2.88
		c-1.54,0.858-4.209,2.057-6.24,0.96c-0.033-2.446-0.514-4.446-1.68-5.76c1.831-0.329,2.372-1.948,4.56-1.92
		c-0.734-1.465-2.609-1.499-2.64-3.12C482.832,285.436,487.624,283.58,488.88,286.8z M475.92,282.48
		c2.127-0.572,5.309-0.214,6.24,1.2c0.358,3.084-2.711,2.891-5.04,2.64C476.373,285.496,475.102,284.089,475.92,282.48z
		 M463.92,228.24c-1.681,0.999-7.189,0.994-7.92-1.2C457.197,224.601,463.731,225.36,463.92,228.24z M452.64,255.12
		c2.999,0.227,5.786-1.538,6.48,1.44c-0.809,1.832-2.357,2.923-3.12,4.8C451.983,262.061,450.62,257.633,452.64,255.12z
		 M461.52,471.36c-0.37,1.789-1.457,2.863-2.16,4.32c-4.178-0.266-7.717-2.303-7.199-6.48c2.236-0.403,1.674-3.605,4.32-3.6
		C456.891,468.79,459.544,469.736,461.52,471.36z M461.28,247.92c-4.098,1.89-5.456-2.772-7.2-4.8c1.945-3.504,6.006,0.232,8.4,0.72
		C461.85,244.969,461.424,246.304,461.28,247.92z M463.92,244.32c-0.947-1.198-0.621-2.685,0-3.84c-1.44-0.727-1.853,1.021-3.6,0.72
		c-1.892-3.425,1.746-6.656,6-6.24c0.379-0.661,0.908-1.172,1.439-1.68c2.106,0.092,4.921-2.894,6.96-0.24
		c0.791,4.077-1.87,7.334-3.12,10.8C468.322,243.668,466.323,243.21,463.92,244.32z M470.64,288.96
		c-0.753-3.142,3.692-2.133,5.521-1.92c-0.312,2.952,3.084,2.196,2.88,5.04C475.102,294.512,473.498,289.841,470.64,288.96z
		 M476.4,417.12c-2.515,0.368-3.424-2.768-3.601-5.52C475.92,408.926,478.02,414.387,476.4,417.12z M478.32,320.16
		c-2.604,0.074-3.801-6.326-0.24-6.96C480.69,313.955,481.304,320.075,478.32,320.16z M482.64,360.72
		c1.78,0.085,3.672,4.583,2.4,7.439c-1.223,1.247-4.15,0.665-5.04-0.479C480.072,364.748,480.51,360.618,482.64,360.72z
		 M482.4,386.64c1.473-2.726,6.345-1.197,6.239,1.439C488.512,391.287,480.306,394.212,482.4,386.64z M489.12,312.24
		c-1.959-1.827-4.25-0.338-6-0.72c1.086-1.57,1.047-3.16,0-4.8C485.781,301.671,492.119,307.343,489.12,312.24z M493.68,335.76
		c-2.647-2.618,0.996-7.254,4.08-5.521c-1.264,1.777-2.035,4.045-3.84,5.28c0.513,0.527,0.189,1.89,0.96,2.16
		c-0.617,0.679-1.036-0.87-1.68-0.96C493.025,336.065,493.677,336.237,493.68,335.76z M493.439,357.6
		c1.768-0.233,2.861-1.14,3.36-2.64c1.733,0.107,1.728,1.953,1.681,3.84c-1.15,0.689-2.312,1.368-3.36,2.16
		C493.88,360.549,492.73,359.212,493.439,357.6z M498.48,384.959c-7.675,1.066-4.463-8.501,0.959-5.039
		C500.073,381.73,499.046,383.587,498.48,384.959z"/>
</g>
</svg>
